<?xml version="1.0" encoding="us-ascii" standalone="no"?><svg xmlns="http://www.w3.org/2000/svg" xmlns:xlink="http://www.w3.org/1999/xlink" contentStyleType="text/css" height="841px" preserveAspectRatio="none" style="width:1231px;height:841px;background:#FFFFFF;" version="1.1" viewBox="0 0 1231 841" width="1231px" zoomAndPan="magnify"><defs/><g><text fill="#000000" font-family="sans-serif" font-size="14" font-weight="bold" lengthAdjust="spacing" textLength="178" x="522.75" y="27.9951">Attester Join protocol</text><rect fill="#DDDDDD" height="792.2422" style="stroke:#181818;stroke-width:0.5;" width="253" x="259" y="43.2969"/><text fill="#000000" font-family="sans-serif" font-size="13" font-weight="bold" lengthAdjust="spacing" textLength="69" x="351" y="55.3638">Platform</text><line style="stroke:#181818;stroke-width:0.5;stroke-dasharray:5.0,5.0;" x1="285" x2="285" y1="110.0234" y2="784.9453"/><line style="stroke:#181818;stroke-width:0.5;stroke-dasharray:5.0,5.0;" x1="470" x2="470" y1="110.0234" y2="784.9453"/><line style="stroke:#181818;stroke-width:0.5;stroke-dasharray:5.0,5.0;" x1="770.5" x2="770.5" y1="110.0234" y2="784.9453"/><line style="stroke:#181818;stroke-width:0.5;stroke-dasharray:5.0,5.0;" x1="1181.5" x2="1181.5" y1="110.0234" y2="784.9453"/><rect fill="#E2E2F0" height="30.2969" rx="2.5" ry="2.5" style="stroke:#181818;stroke-width:0.5;" width="44" x="263" y="78.7266"/><text fill="#000000" font-family="sans-serif" font-size="14" lengthAdjust="spacing" textLength="30" x="270" y="98.7217">TPM</text><rect fill="#E2E2F0" height="30.2969" rx="2.5" ry="2.5" style="stroke:#181818;stroke-width:0.5;" width="44" x="263" y="783.9453"/><text fill="#000000" font-family="sans-serif" font-size="14" lengthAdjust="spacing" textLength="30" x="270" y="803.9404">TPM</text><rect fill="#E2E2F0" height="46.5938" rx="2.5" ry="2.5" style="stroke:#181818;stroke-width:0.5;" width="76" x="432" y="62.4297"/><text fill="#000000" font-family="sans-serif" font-size="14" lengthAdjust="spacing" textLength="62" x="439" y="82.4248">Attester</text><text fill="#000000" font-family="sans-serif" font-size="14" lengthAdjust="spacing" textLength="44" x="448" y="98.7217">Agent</text><rect fill="#E2E2F0" height="46.5938" rx="2.5" ry="2.5" style="stroke:#181818;stroke-width:0.5;" width="76" x="432" y="783.9453"/><text fill="#000000" font-family="sans-serif" font-size="14" lengthAdjust="spacing" textLength="62" x="439" y="803.9404">Attester</text><text fill="#000000" font-family="sans-serif" font-size="14" lengthAdjust="spacing" textLength="44" x="448" y="820.2373">Agent</text><rect fill="#E2E2F0" height="46.5938" rx="2.5" ry="2.5" style="stroke:#181818;stroke-width:0.5;" width="67" x="737.5" y="62.4297"/><text fill="#000000" font-family="sans-serif" font-size="14" lengthAdjust="spacing" textLength="26" x="758" y="82.4248">Join</text><text fill="#000000" font-family="sans-serif" font-size="14" lengthAdjust="spacing" textLength="53" x="744.5" y="98.7217">Service</text><rect fill="#E2E2F0" height="46.5938" rx="2.5" ry="2.5" style="stroke:#181818;stroke-width:0.5;" width="67" x="737.5" y="783.9453"/><text fill="#000000" font-family="sans-serif" font-size="14" lengthAdjust="spacing" textLength="26" x="758" y="803.9404">Join</text><text fill="#000000" font-family="sans-serif" font-size="14" lengthAdjust="spacing" textLength="53" x="744.5" y="820.2373">Service</text><rect fill="#E2E2F0" height="30.2969" rx="2.5" ry="2.5" style="stroke:#181818;stroke-width:0.5;" width="75" x="1144.5" y="78.7266"/><text fill="#000000" font-family="sans-serif" font-size="14" lengthAdjust="spacing" textLength="61" x="1151.5" y="98.7217">Verifiers</text><rect fill="#E2E2F0" height="30.2969" rx="2.5" ry="2.5" style="stroke:#181818;stroke-width:0.5;" width="75" x="1144.5" y="783.9453"/><text fill="#000000" font-family="sans-serif" font-size="14" lengthAdjust="spacing" textLength="61" x="1151.5" y="803.9404">Verifiers</text><rect fill="#EEEEEE" height="3" style="stroke:#EEEEEE;stroke-width:1.0;" width="1224.5" x="0" y="140.5898"/><line style="stroke:#000000;stroke-width:1.0;" x1="0" x2="1224.5" y1="140.5898" y2="140.5898"/><line style="stroke:#000000;stroke-width:1.0;" x1="0" x2="1224.5" y1="143.5898" y2="143.5898"/><rect fill="#EEEEEE" height="23.1328" style="stroke:#000000;stroke-width:2.0;" width="116" x="554.25" y="130.0234"/><text fill="#000000" font-family="sans-serif" font-size="13" font-weight="bold" lengthAdjust="spacing" textLength="97" x="560.25" y="146.0903">LAK creation</text><polygon fill="#181818" points="296,180.2891,286,184.2891,296,188.2891,292,184.2891" style="stroke:#181818;stroke-width:1.0;"/><line style="stroke:#181818;stroke-width:1.0;" x1="290" x2="469" y1="184.2891" y2="184.2891"/><text fill="#000000" font-family="sans-serif" font-size="13" font-weight="bold" lengthAdjust="spacing" textLength="9" x="302" y="179.2231">1</text><text fill="#000000" font-family="sans-serif" font-size="13" lengthAdjust="spacing" textLength="89" x="315" y="179.2231">tpm_createak</text><line style="stroke:#181818;stroke-width:1.0;" x1="243" x2="285" y1="213.4219" y2="213.4219"/><line style="stroke:#181818;stroke-width:1.0;" x1="243" x2="243" y1="213.4219" y2="226.4219"/><line style="stroke:#181818;stroke-width:1.0;" x1="243" x2="284" y1="226.4219" y2="226.4219"/><polygon fill="#181818" points="276,222.4219,286,226.4219,276,230.4219,280,226.4219" style="stroke:#181818;stroke-width:1.0;"/><text fill="#000000" font-family="sans-serif" font-size="13" font-weight="bold" lengthAdjust="spacing" textLength="9" x="191" y="208.356">2</text><text fill="#000000" font-family="sans-serif" font-size="13" lengthAdjust="spacing" textLength="81" x="204" y="208.356">Generate AK</text><rect fill="#EEEEEE" height="3" style="stroke:#EEEEEE;stroke-width:1.0;" width="1224.5" x="0" y="254.9883"/><line style="stroke:#000000;stroke-width:1.0;" x1="0" x2="1224.5" y1="254.9883" y2="254.9883"/><line style="stroke:#000000;stroke-width:1.0;" x1="0" x2="1224.5" y1="257.9883" y2="257.9883"/><rect fill="#EEEEEE" height="23.1328" style="stroke:#000000;stroke-width:2.0;" width="164" x="530.25" y="244.4219"/><text fill="#000000" font-family="sans-serif" font-size="13" font-weight="bold" lengthAdjust="spacing" textLength="145" x="536.25" y="260.4888">Start Join protocol</text><polygon fill="#181818" points="296,294.6875,286,298.6875,296,302.6875,292,298.6875" style="stroke:#181818;stroke-width:1.0;"/><line style="stroke:#181818;stroke-width:1.0;" x1="290" x2="469" y1="298.6875" y2="298.6875"/><text fill="#000000" font-family="sans-serif" font-size="13" font-weight="bold" lengthAdjust="spacing" textLength="8" x="302" y="293.6216">3</text><text fill="#000000" font-family="sans-serif" font-size="13" lengthAdjust="spacing" textLength="101" x="314" y="293.6216">request EK_cert</text><polygon fill="#181818" points="458,323.8203,468,327.8203,458,331.8203,462,327.8203" style="stroke:#181818;stroke-width:1.0;"/><line style="stroke:#181818;stroke-width:1.0;" x1="285" x2="464" y1="327.8203" y2="327.8203"/><text fill="#000000" font-family="sans-serif" font-size="13" font-weight="bold" lengthAdjust="spacing" textLength="9" x="292" y="322.7544">4</text><text fill="#000000" font-family="sans-serif" font-size="13" lengthAdjust="spacing" textLength="48" x="305" y="322.7544">EK_cert</text><polygon fill="#181818" points="759,371.0859,769,375.0859,759,379.0859,763,375.0859" style="stroke:#181818;stroke-width:1.0;"/><line style="stroke:#181818;stroke-width:1.0;" x1="470" x2="765" y1="375.0859" y2="375.0859"/><text fill="#000000" font-family="sans-serif" font-size="13" font-weight="bold" lengthAdjust="spacing" textLength="9" x="477" y="370.02">5</text><text fill="#000000" font-family="sans-serif" font-size="13" lengthAdjust="spacing" textLength="264" x="490" y="370.02">request to join, AK pub, AK name, EK cert</text><path d="M776,340.8203 L776,395.8203 L1067,395.8203 L1067,350.8203 L1057,340.8203 L776,340.8203 " fill="#FEFFDD" style="stroke:#181818;stroke-width:0.5;"/><path d="M1057,340.8203 L1057,350.8203 L1067,350.8203 L1057,340.8203 " fill="#FEFFDD" style="stroke:#181818;stroke-width:0.5;"/><text fill="#000000" font-family="sans-serif" font-size="13" lengthAdjust="spacing" textLength="216" x="782" y="357.8872">The attester notifies its presence.</text><text fill="#000000" font-family="sans-serif" font-size="13" lengthAdjust="spacing" textLength="270" x="782" y="373.02">The join server responds with a challenge,</text><text fill="#000000" font-family="sans-serif" font-size="13" lengthAdjust="spacing" textLength="174" x="782" y="388.1528">or OK if already in its group</text><line style="stroke:#181818;stroke-width:1.0;" x1="771" x2="813" y1="426.418" y2="426.418"/><line style="stroke:#181818;stroke-width:1.0;" x1="813" x2="813" y1="426.418" y2="439.418"/><line style="stroke:#181818;stroke-width:1.0;" x1="772" x2="813" y1="439.418" y2="439.418"/><polygon fill="#181818" points="782,435.418,772,439.418,782,443.418,778,439.418" style="stroke:#181818;stroke-width:1.0;"/><text fill="#000000" font-family="sans-serif" font-size="13" font-weight="bold" lengthAdjust="spacing" textLength="9" x="778" y="421.3521">6</text><text fill="#000000" font-family="sans-serif" font-size="13" lengthAdjust="spacing" textLength="103" x="791" y="421.3521">validate EK_cert</text><path d="M906,406.2188 L906,446.2188 L1151,446.2188 L1151,416.2188 L1141,406.2188 L906,406.2188 " fill="#FEFFDD" style="stroke:#181818;stroke-width:0.5;"/><path d="M1141,406.2188 L1141,416.2188 L1151,416.2188 L1141,406.2188 " fill="#FEFFDD" style="stroke:#181818;stroke-width:0.5;"/><text fill="#000000" font-family="sans-serif" font-size="13" lengthAdjust="spacing" textLength="104" x="912" y="423.2856">TPM is authentic</text><text fill="#000000" font-family="sans-serif" font-size="13" lengthAdjust="spacing" textLength="224" x="912" y="438.4185">(validation of the EK certificate OK)</text><line style="stroke:#181818;stroke-width:1.0;" x1="771" x2="813" y1="472.6172" y2="472.6172"/><line style="stroke:#181818;stroke-width:1.0;" x1="813" x2="813" y1="472.6172" y2="485.6172"/><line style="stroke:#181818;stroke-width:1.0;" x1="772" x2="813" y1="485.6172" y2="485.6172"/><polygon fill="#181818" points="782,481.6172,772,485.6172,782,489.6172,778,485.6172" style="stroke:#181818;stroke-width:1.0;"/><text fill="#000000" font-family="sans-serif" font-size="13" font-weight="bold" lengthAdjust="spacing" textLength="9" x="778" y="467.5513">7</text><text fill="#000000" font-family="sans-serif" font-size="13" lengthAdjust="spacing" textLength="384" x="791" y="467.5513">challenge = tpm_makecredential(EK_pub, nonce, AK_name)</text><polygon fill="#181818" points="481,510.75,471,514.75,481,518.75,477,514.75" style="stroke:#181818;stroke-width:1.0;"/><line style="stroke:#181818;stroke-width:1.0;" x1="475" x2="770" y1="514.75" y2="514.75"/><text fill="#000000" font-family="sans-serif" font-size="13" font-weight="bold" lengthAdjust="spacing" textLength="9" x="487" y="509.6841">8</text><text fill="#000000" font-family="sans-serif" font-size="13" lengthAdjust="spacing" textLength="61" x="500" y="509.6841">challenge</text><polygon fill="#181818" points="296,565.582,286,569.582,296,573.582,292,569.582" style="stroke:#181818;stroke-width:1.0;"/><line style="stroke:#181818;stroke-width:1.0;" x1="290" x2="469" y1="569.582" y2="569.582"/><text fill="#000000" font-family="sans-serif" font-size="13" font-weight="bold" lengthAdjust="spacing" textLength="9" x="302" y="564.5161">9</text><text fill="#000000" font-family="sans-serif" font-size="13" lengthAdjust="spacing" textLength="148" x="315" y="564.5161">tpm_activatecredential</text><path d="M39,527.75 L39,597.75 L280,597.75 L280,537.75 L270,527.75 L39,527.75 " fill="#FEFFDD" style="stroke:#181818;stroke-width:0.5;"/><path d="M270,527.75 L270,537.75 L280,537.75 L270,527.75 " fill="#FEFFDD" style="stroke:#181818;stroke-width:0.5;"/><text fill="#000000" font-family="sans-serif" font-size="13" lengthAdjust="spacing" textLength="203" x="45" y="544.8169">tpm_activate credential verifies</text><text fill="#000000" font-family="sans-serif" font-size="13" lengthAdjust="spacing" textLength="220" x="45" y="559.9497">the possession of AK_priv, EK_priv</text><text fill="#000000" font-family="sans-serif" font-size="13" lengthAdjust="spacing" textLength="203" x="45" y="575.0825">and verifies that they are in the</text><text fill="#000000" font-family="sans-serif" font-size="13" lengthAdjust="spacing" textLength="66" x="45" y="590.2153">same TPM</text><line style="stroke:#181818;stroke-width:1.0;" x1="243" x2="285" y1="624.4141" y2="624.4141"/><line style="stroke:#181818;stroke-width:1.0;" x1="243" x2="243" y1="624.4141" y2="637.4141"/><line style="stroke:#181818;stroke-width:1.0;" x1="243" x2="284" y1="637.4141" y2="637.4141"/><polygon fill="#181818" points="276,633.4141,286,637.4141,276,641.4141,280,637.4141" style="stroke:#181818;stroke-width:1.0;"/><text fill="#000000" font-family="sans-serif" font-size="13" font-weight="bold" lengthAdjust="spacing" textLength="19" x="14" y="619.3481">10</text><text fill="#000000" font-family="sans-serif" font-size="13" lengthAdjust="spacing" textLength="248" x="37" y="619.3481">activate_credential(EK_priv, challenge)</text><polygon fill="#181818" points="458,662.5469,468,666.5469,458,670.5469,462,666.5469" style="stroke:#181818;stroke-width:1.0;"/><line style="stroke:#181818;stroke-width:1.0;" x1="285" x2="464" y1="666.5469" y2="666.5469"/><text fill="#000000" font-family="sans-serif" font-size="13" font-weight="bold" lengthAdjust="spacing" textLength="18" x="292" y="661.481">11</text><text fill="#000000" font-family="sans-serif" font-size="13" lengthAdjust="spacing" textLength="39" x="314" y="661.481">nonce</text><polygon fill="#181818" points="759,691.6797,769,695.6797,759,699.6797,763,695.6797" style="stroke:#181818;stroke-width:1.0;"/><line style="stroke:#181818;stroke-width:1.0;" x1="470" x2="765" y1="695.6797" y2="695.6797"/><text fill="#000000" font-family="sans-serif" font-size="13" font-weight="bold" lengthAdjust="spacing" textLength="18" x="477" y="690.6138">12</text><text fill="#000000" font-family="sans-serif" font-size="13" lengthAdjust="spacing" textLength="39" x="499" y="690.6138">nonce</text><line style="stroke:#181818;stroke-width:1.0;" x1="771" x2="813" y1="724.8125" y2="724.8125"/><line style="stroke:#181818;stroke-width:1.0;" x1="813" x2="813" y1="724.8125" y2="737.8125"/><line style="stroke:#181818;stroke-width:1.0;" x1="772" x2="813" y1="737.8125" y2="737.8125"/><polygon fill="#181818" points="782,733.8125,772,737.8125,782,741.8125,778,737.8125" style="stroke:#181818;stroke-width:1.0;"/><text fill="#000000" font-family="sans-serif" font-size="13" font-weight="bold" lengthAdjust="spacing" textLength="17" x="778" y="719.7466">13</text><text fill="#000000" font-family="sans-serif" font-size="13" lengthAdjust="spacing" textLength="85" x="799" y="719.7466">Add AK to DB</text><polygon fill="#181818" points="1170,762.9453,1180,766.9453,1170,770.9453,1174,766.9453" style="stroke:#181818;stroke-width:1.0;"/><line style="stroke:#181818;stroke-width:1.0;" x1="771" x2="1176" y1="766.9453" y2="766.9453"/><text fill="#000000" font-family="sans-serif" font-size="13" font-weight="bold" lengthAdjust="spacing" textLength="18" x="778" y="761.8794">14</text><text fill="#000000" font-family="sans-serif" font-size="13" lengthAdjust="spacing" textLength="263" x="800" y="761.8794">notify verifiers of new agent in the group</text><!--SRC=[VLF1Rjim3BthAuXSsWB9FY1e2cJeC63Ua08TTYfWA3QTQBKbJwBJvUz7qd4I9sjzY1tgyP7laI97DPeb4IR22D-2yz36GA48jK5V0Yd0TXHyrwmn6hCEVs7oL5kgGcmcfhMHNE5Qwmb-FlqO_PyCn2z-kK5F4x09x26MMmb94MOSfqaRB_uPuyuLg4c_EPAdFc3COW7VbnaK4Isvu66nC5pwVZQcdWErJQuWjAyzWd_c05_HO-GeB3CbUoQkFXR_BcV4Fnq7u4kM5nX9GBE7Iz1mE8xF7ivbdAWegBufjmDjjzQtjmrEcGUKnmTkDhhDbkjjyMWXSDnL3XCuIjmw9lG5VbACC8AKOXWVjC6N2TuSRS52iRLrZNw3KnCYh39m5TYQZIhtm5b2jecXQtK3fBOnDmmW1J56kB7as6WkrpQiCiPWdVfkp2LyxCRErgwKeGpc0Pp91dxOQd2yG1rjcTuL6hmzvCaUX0huQ72DdIc4RvNTCV8evUCkZjR0GjUdiQ_8ArHAGLlVScyw8H_OQ1bKBeCI_h7s-zaxj4Pb_7zLRK5knnsVwWqUr5Zr5fp3u8G3dh8kGWzY3zgG4gPqS8NxRAFRoKBfXy8iEpBaSOubITo3ZIXBmD-AIgnFB_R8mjDb6hh9BrpISaVPTttEzOgeaLVsNKvbG7qqkMLPoiNXo_Ju-GhwgzSPqxo_C_j1UKpYZyStqC87vOVrln79_m00]--></g></svg>