<?xml version="1.0" encoding="us-ascii" standalone="no"?><svg xmlns="http://www.w3.org/2000/svg" xmlns:xlink="http://www.w3.org/1999/xlink" contentStyleType="text/css" height="931px" preserveAspectRatio="none" style="width:1110px;height:931px;background:#FFFFFF;" version="1.1" viewBox="0 0 1110 931" width="1110px" zoomAndPan="magnify"><defs/><g><text fill="#000000" font-family="sans-serif" font-size="14" font-weight="bold" lengthAdjust="spacing" textLength="104" x="499" y="27.9951">Join protocol</text><rect fill="#DDDDDD" height="882.4453" style="stroke:#181818;stroke-width:0.5;" width="263" x="240" y="43.2969"/><text fill="#000000" font-family="sans-serif" font-size="13" font-weight="bold" lengthAdjust="spacing" textLength="69" x="337" y="55.3638">Platform</text><rect fill="none" height="449.9297" style="stroke:#000000;stroke-width:1.5;" width="1083" x="10" y="408.2188"/><line style="stroke:#181818;stroke-width:0.5;stroke-dasharray:5.0,5.0;" x1="266" x2="266" y1="110.0234" y2="875.1484"/><line style="stroke:#181818;stroke-width:0.5;stroke-dasharray:5.0,5.0;" x1="461" x2="461" y1="110.0234" y2="875.1484"/><line style="stroke:#181818;stroke-width:0.5;stroke-dasharray:5.0,5.0;" x1="697.5" x2="697.5" y1="110.0234" y2="875.1484"/><line style="stroke:#181818;stroke-width:0.5;stroke-dasharray:5.0,5.0;" x1="1006.5" x2="1006.5" y1="110.0234" y2="875.1484"/><rect fill="#E2E2F0" height="30.2969" rx="2.5" ry="2.5" style="stroke:#181818;stroke-width:0.5;" width="44" x="244" y="78.7266"/><text fill="#000000" font-family="sans-serif" font-size="14" lengthAdjust="spacing" textLength="30" x="251" y="98.7217">TPM</text><rect fill="#E2E2F0" height="30.2969" rx="2.5" ry="2.5" style="stroke:#181818;stroke-width:0.5;" width="44" x="244" y="874.1484"/><text fill="#000000" font-family="sans-serif" font-size="14" lengthAdjust="spacing" textLength="30" x="251" y="894.1436">TPM</text><rect fill="#E2E2F0" height="46.5938" rx="2.5" ry="2.5" style="stroke:#181818;stroke-width:0.5;" width="76" x="423" y="62.4297"/><text fill="#000000" font-family="sans-serif" font-size="14" lengthAdjust="spacing" textLength="62" x="430" y="82.4248">Attester</text><text fill="#000000" font-family="sans-serif" font-size="14" lengthAdjust="spacing" textLength="44" x="439" y="98.7217">Agent</text><rect fill="#E2E2F0" height="46.5938" rx="2.5" ry="2.5" style="stroke:#181818;stroke-width:0.5;" width="76" x="423" y="874.1484"/><text fill="#000000" font-family="sans-serif" font-size="14" lengthAdjust="spacing" textLength="62" x="430" y="894.1436">Attester</text><text fill="#000000" font-family="sans-serif" font-size="14" lengthAdjust="spacing" textLength="44" x="439" y="910.4404">Agent</text><rect fill="#E2E2F0" height="46.5938" rx="2.5" ry="2.5" style="stroke:#181818;stroke-width:0.5;" width="67" x="664.5" y="62.4297"/><text fill="#000000" font-family="sans-serif" font-size="14" lengthAdjust="spacing" textLength="26" x="685" y="82.4248">Join</text><text fill="#000000" font-family="sans-serif" font-size="14" lengthAdjust="spacing" textLength="53" x="671.5" y="98.7217">Service</text><rect fill="#E2E2F0" height="46.5938" rx="2.5" ry="2.5" style="stroke:#181818;stroke-width:0.5;" width="67" x="664.5" y="874.1484"/><text fill="#000000" font-family="sans-serif" font-size="14" lengthAdjust="spacing" textLength="26" x="685" y="894.1436">Join</text><text fill="#000000" font-family="sans-serif" font-size="14" lengthAdjust="spacing" textLength="53" x="671.5" y="910.4404">Service</text><rect fill="#E2E2F0" height="30.2969" rx="2.5" ry="2.5" style="stroke:#181818;stroke-width:0.5;" width="75" x="969.5" y="78.7266"/><text fill="#000000" font-family="sans-serif" font-size="14" lengthAdjust="spacing" textLength="61" x="976.5" y="98.7217">Verifiers</text><rect fill="#E2E2F0" height="30.2969" rx="2.5" ry="2.5" style="stroke:#181818;stroke-width:0.5;" width="75" x="969.5" y="874.1484"/><text fill="#000000" font-family="sans-serif" font-size="14" lengthAdjust="spacing" textLength="61" x="976.5" y="894.1436">Verifiers</text><rect fill="#EEEEEE" height="3" style="stroke:#EEEEEE;stroke-width:1.0;" width="1103" x="0" y="140.5898"/><line style="stroke:#000000;stroke-width:1.0;" x1="0" x2="1103" y1="140.5898" y2="140.5898"/><line style="stroke:#000000;stroke-width:1.0;" x1="0" x2="1103" y1="143.5898" y2="143.5898"/><rect fill="#EEEEEE" height="23.1328" style="stroke:#000000;stroke-width:2.0;" width="116" x="493.5" y="130.0234"/><text fill="#000000" font-family="sans-serif" font-size="13" font-weight="bold" lengthAdjust="spacing" textLength="97" x="499.5" y="146.0903">LAK creation</text><polygon fill="#181818" points="277,180.2891,267,184.2891,277,188.2891,273,184.2891" style="stroke:#181818;stroke-width:1.0;"/><line style="stroke:#181818;stroke-width:1.0;" x1="271" x2="460" y1="184.2891" y2="184.2891"/><text fill="#000000" font-family="sans-serif" font-size="13" font-weight="bold" lengthAdjust="spacing" textLength="9" x="283" y="179.2231">1</text><text fill="#000000" font-family="sans-serif" font-size="13" lengthAdjust="spacing" textLength="89" x="296" y="179.2231">tpm_createak</text><line style="stroke:#181818;stroke-width:1.0;" x1="224" x2="266" y1="213.4219" y2="213.4219"/><line style="stroke:#181818;stroke-width:1.0;" x1="224" x2="224" y1="213.4219" y2="226.4219"/><line style="stroke:#181818;stroke-width:1.0;" x1="224" x2="265" y1="226.4219" y2="226.4219"/><polygon fill="#181818" points="257,222.4219,267,226.4219,257,230.4219,261,226.4219" style="stroke:#181818;stroke-width:1.0;"/><text fill="#000000" font-family="sans-serif" font-size="13" font-weight="bold" lengthAdjust="spacing" textLength="9" x="165" y="208.356">2</text><text fill="#000000" font-family="sans-serif" font-size="13" lengthAdjust="spacing" textLength="88" x="178" y="208.356">Generate LAK</text><rect fill="#EEEEEE" height="3" style="stroke:#EEEEEE;stroke-width:1.0;" width="1103" x="0" y="254.9883"/><line style="stroke:#000000;stroke-width:1.0;" x1="0" x2="1103" y1="254.9883" y2="254.9883"/><line style="stroke:#000000;stroke-width:1.0;" x1="0" x2="1103" y1="257.9883" y2="257.9883"/><rect fill="#EEEEEE" height="23.1328" style="stroke:#000000;stroke-width:2.0;" width="164" x="469.5" y="244.4219"/><text fill="#000000" font-family="sans-serif" font-size="13" font-weight="bold" lengthAdjust="spacing" textLength="145" x="475.5" y="260.4888">Start Join protocol</text><polygon fill="#181818" points="277,294.6875,267,298.6875,277,302.6875,273,298.6875" style="stroke:#181818;stroke-width:1.0;"/><line style="stroke:#181818;stroke-width:1.0;" x1="271" x2="460" y1="298.6875" y2="298.6875"/><text fill="#000000" font-family="sans-serif" font-size="13" font-weight="bold" lengthAdjust="spacing" textLength="8" x="283" y="293.6216">3</text><text fill="#000000" font-family="sans-serif" font-size="13" lengthAdjust="spacing" textLength="101" x="295" y="293.6216">request EK_cert</text><polygon fill="#181818" points="449,323.8203,459,327.8203,449,331.8203,453,327.8203" style="stroke:#181818;stroke-width:1.0;"/><line style="stroke:#181818;stroke-width:1.0;" x1="266" x2="455" y1="327.8203" y2="327.8203"/><text fill="#000000" font-family="sans-serif" font-size="13" font-weight="bold" lengthAdjust="spacing" textLength="9" x="273" y="322.7544">4</text><text fill="#000000" font-family="sans-serif" font-size="13" lengthAdjust="spacing" textLength="48" x="286" y="322.7544">EK_cert</text><polygon fill="#181818" points="686,371.0859,696,375.0859,686,379.0859,690,375.0859" style="stroke:#181818;stroke-width:1.0;"/><line style="stroke:#181818;stroke-width:1.0;" x1="461" x2="692" y1="375.0859" y2="375.0859"/><text fill="#000000" font-family="sans-serif" font-size="13" font-weight="bold" lengthAdjust="spacing" textLength="9" x="468" y="370.02">5</text><text fill="#000000" font-family="sans-serif" font-size="13" lengthAdjust="spacing" textLength="200" x="481" y="370.02">request to join, LAK csr, EK cert</text><path d="M703,340.8203 L703,395.8203 L994,395.8203 L994,350.8203 L984,340.8203 L703,340.8203 " fill="#FEFFDD" style="stroke:#181818;stroke-width:0.5;"/><path d="M984,340.8203 L984,350.8203 L994,350.8203 L984,340.8203 " fill="#FEFFDD" style="stroke:#181818;stroke-width:0.5;"/><text fill="#000000" font-family="sans-serif" font-size="13" lengthAdjust="spacing" textLength="216" x="709" y="357.8872">The attester notifies its presence.</text><text fill="#000000" font-family="sans-serif" font-size="13" lengthAdjust="spacing" textLength="270" x="709" y="373.02">The join server responds with a challenge,</text><text fill="#000000" font-family="sans-serif" font-size="13" lengthAdjust="spacing" textLength="174" x="709" y="388.1528">or OK if already in its group</text><path d="M10,408.2188 L76,408.2188 L76,415.3516 L66,425.3516 L10,425.3516 L10,408.2188 " fill="#EEEEEE" style="stroke:#000000;stroke-width:1.5;"/><rect fill="none" height="449.9297" style="stroke:#000000;stroke-width:1.5;" width="1083" x="10" y="408.2188"/><text fill="#000000" font-family="sans-serif" font-size="13" font-weight="bold" lengthAdjust="spacing" textLength="21" x="25" y="421.2856">alt</text><text fill="#000000" font-family="sans-serif" font-size="11" font-weight="bold" lengthAdjust="spacing" textLength="96" x="91" y="420.4292">[alredy joined]</text><polygon fill="#181818" points="472,442.4844,462,446.4844,472,450.4844,468,446.4844" style="stroke:#181818;stroke-width:1.0;"/><line style="stroke:#181818;stroke-width:1.0;" x1="466" x2="697" y1="446.4844" y2="446.4844"/><text fill="#000000" font-family="sans-serif" font-size="13" font-weight="bold" lengthAdjust="spacing" textLength="9" x="478" y="441.4185">6</text><text fill="#000000" font-family="sans-serif" font-size="13" lengthAdjust="spacing" textLength="18" x="491" y="441.4185">OK</text><line style="stroke:#000000;stroke-width:1.0;stroke-dasharray:2.0,2.0;" x1="10" x2="1093" y1="455.4844" y2="455.4844"/><text fill="#000000" font-family="sans-serif" font-size="11" font-weight="bold" lengthAdjust="spacing" textLength="35" x="15" y="465.6948">[join]</text><line style="stroke:#181818;stroke-width:1.0;" x1="698" x2="740" y1="494.4883" y2="494.4883"/><line style="stroke:#181818;stroke-width:1.0;" x1="740" x2="740" y1="494.4883" y2="507.4883"/><line style="stroke:#181818;stroke-width:1.0;" x1="699" x2="740" y1="507.4883" y2="507.4883"/><polygon fill="#181818" points="709,503.4883,699,507.4883,709,511.4883,705,507.4883" style="stroke:#181818;stroke-width:1.0;"/><text fill="#000000" font-family="sans-serif" font-size="13" font-weight="bold" lengthAdjust="spacing" textLength="9" x="705" y="489.4224">7</text><text fill="#000000" font-family="sans-serif" font-size="13" lengthAdjust="spacing" textLength="103" x="718" y="489.4224">validate EK_cert</text><path d="M833,474.2891 L833,514.2891 L1078,514.2891 L1078,484.2891 L1068,474.2891 L833,474.2891 " fill="#FEFFDD" style="stroke:#181818;stroke-width:0.5;"/><path d="M1068,474.2891 L1068,484.2891 L1078,484.2891 L1068,474.2891 " fill="#FEFFDD" style="stroke:#181818;stroke-width:0.5;"/><text fill="#000000" font-family="sans-serif" font-size="13" lengthAdjust="spacing" textLength="104" x="839" y="491.356">TPM is authentic</text><text fill="#000000" font-family="sans-serif" font-size="13" lengthAdjust="spacing" textLength="224" x="839" y="506.4888">(validation of the EK certificate OK)</text><line style="stroke:#181818;stroke-width:1.0;" x1="698" x2="740" y1="555.8203" y2="555.8203"/><line style="stroke:#181818;stroke-width:1.0;" x1="740" x2="740" y1="555.8203" y2="568.8203"/><line style="stroke:#181818;stroke-width:1.0;" x1="699" x2="740" y1="568.8203" y2="568.8203"/><polygon fill="#181818" points="709,564.8203,699,568.8203,709,572.8203,705,568.8203" style="stroke:#181818;stroke-width:1.0;"/><text fill="#000000" font-family="sans-serif" font-size="13" font-weight="bold" lengthAdjust="spacing" textLength="9" x="705" y="543.188">8</text><text fill="#000000" font-family="sans-serif" font-size="13" lengthAdjust="spacing" textLength="132" x="718" y="535.6216">tpm_makecredential</text><text fill="#000000" font-family="sans-serif" font-size="13" lengthAdjust="spacing" textLength="269" x="718" y="550.7544">challenge = enc(EK_pub, nonce, LAK_pub)</text><polygon fill="#181818" points="472,593.9531,462,597.9531,472,601.9531,468,597.9531" style="stroke:#181818;stroke-width:1.0;"/><line style="stroke:#181818;stroke-width:1.0;" x1="466" x2="697" y1="597.9531" y2="597.9531"/><text fill="#000000" font-family="sans-serif" font-size="13" font-weight="bold" lengthAdjust="spacing" textLength="9" x="478" y="592.8872">9</text><text fill="#000000" font-family="sans-serif" font-size="13" lengthAdjust="spacing" textLength="61" x="491" y="592.8872">challenge</text><polygon fill="#181818" points="277,648.7852,267,652.7852,277,656.7852,273,652.7852" style="stroke:#181818;stroke-width:1.0;"/><line style="stroke:#181818;stroke-width:1.0;" x1="271" x2="460" y1="652.7852" y2="652.7852"/><text fill="#000000" font-family="sans-serif" font-size="13" font-weight="bold" lengthAdjust="spacing" textLength="19" x="283" y="647.7192">10</text><text fill="#000000" font-family="sans-serif" font-size="13" lengthAdjust="spacing" textLength="148" x="306" y="647.7192">tpm_activatecredential</text><path d="M20,610.9531 L20,680.9531 L261,680.9531 L261,620.9531 L251,610.9531 L20,610.9531 " fill="#FEFFDD" style="stroke:#181818;stroke-width:0.5;"/><path d="M251,610.9531 L251,620.9531 L261,620.9531 L251,610.9531 " fill="#FEFFDD" style="stroke:#181818;stroke-width:0.5;"/><text fill="#000000" font-family="sans-serif" font-size="13" lengthAdjust="spacing" textLength="203" x="26" y="628.02">tpm_activate credential verifies</text><text fill="#000000" font-family="sans-serif" font-size="13" lengthAdjust="spacing" textLength="220" x="26" y="643.1528">the possession of AK_priv, EK_priv</text><text fill="#000000" font-family="sans-serif" font-size="13" lengthAdjust="spacing" textLength="203" x="26" y="658.2856">and verifies that they are in the</text><text fill="#000000" font-family="sans-serif" font-size="13" lengthAdjust="spacing" textLength="66" x="26" y="673.4185">same TPM</text><line style="stroke:#181818;stroke-width:1.0;" x1="224" x2="266" y1="707.6172" y2="707.6172"/><line style="stroke:#181818;stroke-width:1.0;" x1="224" x2="224" y1="707.6172" y2="720.6172"/><line style="stroke:#181818;stroke-width:1.0;" x1="224" x2="265" y1="720.6172" y2="720.6172"/><polygon fill="#181818" points="257,716.6172,267,720.6172,257,724.6172,261,720.6172" style="stroke:#181818;stroke-width:1.0;"/><text fill="#000000" font-family="sans-serif" font-size="13" font-weight="bold" lengthAdjust="spacing" textLength="18" x="95" y="702.5513">11</text><text fill="#000000" font-family="sans-serif" font-size="13" lengthAdjust="spacing" textLength="149" x="117" y="702.5513">dec(EK_priv, challenge)</text><polygon fill="#181818" points="449,745.75,459,749.75,449,753.75,453,749.75" style="stroke:#181818;stroke-width:1.0;"/><line style="stroke:#181818;stroke-width:1.0;" x1="266" x2="455" y1="749.75" y2="749.75"/><text fill="#000000" font-family="sans-serif" font-size="13" font-weight="bold" lengthAdjust="spacing" textLength="18" x="273" y="744.6841">12</text><text fill="#000000" font-family="sans-serif" font-size="13" lengthAdjust="spacing" textLength="39" x="295" y="744.6841">nonce</text><polygon fill="#181818" points="686,774.8828,696,778.8828,686,782.8828,690,778.8828" style="stroke:#181818;stroke-width:1.0;"/><line style="stroke:#181818;stroke-width:1.0;" x1="461" x2="692" y1="778.8828" y2="778.8828"/><text fill="#000000" font-family="sans-serif" font-size="13" font-weight="bold" lengthAdjust="spacing" textLength="17" x="468" y="773.8169">13</text><text fill="#000000" font-family="sans-serif" font-size="13" lengthAdjust="spacing" textLength="39" x="489" y="773.8169">nonce</text><line style="stroke:#181818;stroke-width:1.0;" x1="698" x2="740" y1="808.0156" y2="808.0156"/><line style="stroke:#181818;stroke-width:1.0;" x1="740" x2="740" y1="808.0156" y2="821.0156"/><line style="stroke:#181818;stroke-width:1.0;" x1="699" x2="740" y1="821.0156" y2="821.0156"/><polygon fill="#181818" points="709,817.0156,699,821.0156,709,825.0156,705,821.0156" style="stroke:#181818;stroke-width:1.0;"/><text fill="#000000" font-family="sans-serif" font-size="13" font-weight="bold" lengthAdjust="spacing" textLength="18" x="705" y="802.9497">14</text><text fill="#000000" font-family="sans-serif" font-size="13" lengthAdjust="spacing" textLength="92" x="727" y="802.9497">Add LAK to DB</text><polygon fill="#181818" points="995,846.1484,1005,850.1484,995,854.1484,999,850.1484" style="stroke:#181818;stroke-width:1.0;"/><line style="stroke:#181818;stroke-width:1.0;" x1="698" x2="1001" y1="850.1484" y2="850.1484"/><text fill="#000000" font-family="sans-serif" font-size="13" font-weight="bold" lengthAdjust="spacing" textLength="18" x="705" y="845.0825">15</text><text fill="#000000" font-family="sans-serif" font-size="13" lengthAdjust="spacing" textLength="263" x="727" y="845.0825">notify verifiers of new agent in the group</text><!--SRC=[VLF1Rjim3BthAuYSMY3P1mHDWGmR1YmRKg33JW42HMPYhOhaINIw_Fr8EaxYPgiFXaqzFl8zKkGfeFcQV8Gc9qek1OEn0jAuRId5Th_1RCmc_O7HKx2qJNa_CetDv9rlR2JuyVHzy3-Q4s4XpAiuts6a4TW2zXHRMmb94MOSfaaRg_YC-U0TQj8lZgnB5p1cDeDlymMuZ9PyYZ2R6IxzC1bIJu6Q_Lf1Q5yw1B-c05ymOkQei2ZRCt5v6AZ_Bsd6toq7uFDYxJ2JW2QFRq7zuJ0-URpMSQ6Yf0B7dQgInvmFcXyJTvdzhkOwDPwz0uxxhSS2dWgtZ0MZmm-A4IQG4WpZWoR5gi2hfneikDg6W767OvCoB1VWjs03ErGTWRE4R9TJs-ZefROnDf12627CM1aOJEDM-t9XC9IkaHlmq8233RwIGVH-0Lmf1dxONV2yD2tLJEwT1kzEUJBxj0K-wWrZKvpmBHVtZ3ohUByBMPEzVK5UbKgAsB2APwTWnZJkZXjisisOwTXe7PJyIv6X_8V9aFlCOrJBltVKEl87RllIG6z4m6tdmpKCBZZWAUiYT20seacbO2adQwJDx0-oKFgXCCksz7cSOqaIZs0poXBmjwAAtQFUw86FbrjKOUUAqfzbtdUOswrGusxiUZkA7lNUkEPLfHU5RysdZpVOdvsmNART9JdsKdCHGoA-WbO-IRti-ry0]--></g></svg>