<?xml version="1.0" encoding="us-ascii" standalone="no"?><svg xmlns="http://www.w3.org/2000/svg" xmlns:xlink="http://www.w3.org/1999/xlink" contentStyleType="text/css" height="717px" preserveAspectRatio="none" style="width:1241px;height:717px;background:#FFFFFF;" version="1.1" viewBox="0 0 1241 717" width="1241px" zoomAndPan="magnify"><defs/><g><rect fill="#DDDDDD" height="705.9766" style="stroke:#181818;stroke-width:0.5;" width="261" x="259" y="6"/><text fill="#000000" font-family="sans-serif" font-size="13" font-weight="bold" lengthAdjust="spacing" textLength="69" x="355" y="18.0669">Platform</text><line style="stroke:#181818;stroke-width:0.5;stroke-dasharray:5.0,5.0;" x1="285" x2="285" y1="72.7266" y2="661.3828"/><line style="stroke:#181818;stroke-width:0.5;stroke-dasharray:5.0,5.0;" x1="478" x2="478" y1="72.7266" y2="661.3828"/><line style="stroke:#181818;stroke-width:0.5;stroke-dasharray:5.0,5.0;" x1="778.5" x2="778.5" y1="72.7266" y2="661.3828"/><line style="stroke:#181818;stroke-width:0.5;stroke-dasharray:5.0,5.0;" x1="1197.5" x2="1197.5" y1="72.7266" y2="661.3828"/><rect fill="#E2E2F0" height="30.2969" rx="2.5" ry="2.5" style="stroke:#181818;stroke-width:0.5;" width="44" x="263" y="41.4297"/><text fill="#000000" font-family="sans-serif" font-size="14" lengthAdjust="spacing" textLength="30" x="270" y="61.4248">TPM</text><rect fill="#E2E2F0" height="30.2969" rx="2.5" ry="2.5" style="stroke:#181818;stroke-width:0.5;" width="44" x="263" y="660.3828"/><text fill="#000000" font-family="sans-serif" font-size="14" lengthAdjust="spacing" textLength="30" x="270" y="680.3779">TPM</text><rect fill="#E2E2F0" height="46.5938" rx="2.5" ry="2.5" style="stroke:#181818;stroke-width:0.5;" width="76" x="440" y="25.1328"/><text fill="#000000" font-family="sans-serif" font-size="14" lengthAdjust="spacing" textLength="62" x="447" y="45.1279">Attester</text><text fill="#000000" font-family="sans-serif" font-size="14" lengthAdjust="spacing" textLength="44" x="456" y="61.4248">Agent</text><rect fill="#E2E2F0" height="46.5938" rx="2.5" ry="2.5" style="stroke:#181818;stroke-width:0.5;" width="76" x="440" y="660.3828"/><text fill="#000000" font-family="sans-serif" font-size="14" lengthAdjust="spacing" textLength="62" x="447" y="680.3779">Attester</text><text fill="#000000" font-family="sans-serif" font-size="14" lengthAdjust="spacing" textLength="44" x="456" y="696.6748">Agent</text><rect fill="#E2E2F0" height="46.5938" rx="2.5" ry="2.5" style="stroke:#181818;stroke-width:0.5;" width="67" x="745.5" y="25.1328"/><text fill="#000000" font-family="sans-serif" font-size="14" lengthAdjust="spacing" textLength="26" x="766" y="45.1279">Join</text><text fill="#000000" font-family="sans-serif" font-size="14" lengthAdjust="spacing" textLength="53" x="752.5" y="61.4248">Service</text><rect fill="#E2E2F0" height="46.5938" rx="2.5" ry="2.5" style="stroke:#181818;stroke-width:0.5;" width="67" x="745.5" y="660.3828"/><text fill="#000000" font-family="sans-serif" font-size="14" lengthAdjust="spacing" textLength="26" x="766" y="680.3779">Join</text><text fill="#000000" font-family="sans-serif" font-size="14" lengthAdjust="spacing" textLength="53" x="752.5" y="696.6748">Service</text><rect fill="#E2E2F0" height="30.2969" rx="2.5" ry="2.5" style="stroke:#181818;stroke-width:0.5;" width="75" x="1160.5" y="41.4297"/><text fill="#000000" font-family="sans-serif" font-size="14" lengthAdjust="spacing" textLength="61" x="1167.5" y="61.4248">Verifiers</text><rect fill="#E2E2F0" height="30.2969" rx="2.5" ry="2.5" style="stroke:#181818;stroke-width:0.5;" width="75" x="1160.5" y="660.3828"/><text fill="#000000" font-family="sans-serif" font-size="14" lengthAdjust="spacing" textLength="61" x="1167.5" y="680.3779">Verifiers</text><polygon fill="#181818" points="296,99.8594,286,103.8594,296,107.8594,292,103.8594" style="stroke:#181818;stroke-width:1.0;"/><line style="stroke:#181818;stroke-width:1.0;" x1="290" x2="477" y1="103.8594" y2="103.8594"/><text fill="#000000" font-family="sans-serif" font-size="13" font-weight="bold" lengthAdjust="spacing" textLength="9" x="302" y="98.7935">1</text><text fill="#000000" font-family="sans-serif" font-size="13" lengthAdjust="spacing" textLength="97" x="315" y="98.7935">tpm2_createak</text><line style="stroke:#181818;stroke-width:1.0;" x1="243" x2="285" y1="132.9922" y2="132.9922"/><line style="stroke:#181818;stroke-width:1.0;" x1="243" x2="243" y1="132.9922" y2="145.9922"/><line style="stroke:#181818;stroke-width:1.0;" x1="243" x2="284" y1="145.9922" y2="145.9922"/><polygon fill="#181818" points="276,141.9922,286,145.9922,276,149.9922,280,145.9922" style="stroke:#181818;stroke-width:1.0;"/><text fill="#000000" font-family="sans-serif" font-size="13" font-weight="bold" lengthAdjust="spacing" textLength="9" x="191" y="127.9263">2</text><text fill="#000000" font-family="sans-serif" font-size="13" lengthAdjust="spacing" textLength="81" x="204" y="127.9263">Generate AK</text><polygon fill="#181818" points="296,171.125,286,175.125,296,179.125,292,175.125" style="stroke:#181818;stroke-width:1.0;"/><line style="stroke:#181818;stroke-width:1.0;" x1="290" x2="477" y1="175.125" y2="175.125"/><text fill="#000000" font-family="sans-serif" font-size="13" font-weight="bold" lengthAdjust="spacing" textLength="8" x="302" y="170.0591">3</text><text fill="#000000" font-family="sans-serif" font-size="13" lengthAdjust="spacing" textLength="101" x="314" y="170.0591">request EK_cert</text><polygon fill="#181818" points="466,200.2578,476,204.2578,466,208.2578,470,204.2578" style="stroke:#181818;stroke-width:1.0;"/><line style="stroke:#181818;stroke-width:1.0;" x1="285" x2="472" y1="204.2578" y2="204.2578"/><text fill="#000000" font-family="sans-serif" font-size="13" font-weight="bold" lengthAdjust="spacing" textLength="9" x="292" y="199.1919">4</text><text fill="#000000" font-family="sans-serif" font-size="13" lengthAdjust="spacing" textLength="48" x="305" y="199.1919">EK_cert</text><polygon fill="#181818" points="767,247.5234,777,251.5234,767,255.5234,771,251.5234" style="stroke:#181818;stroke-width:1.0;"/><line style="stroke:#181818;stroke-width:1.0;" x1="478" x2="773" y1="251.5234" y2="251.5234"/><text fill="#000000" font-family="sans-serif" font-size="13" font-weight="bold" lengthAdjust="spacing" textLength="9" x="485" y="246.4575">5</text><text fill="#000000" font-family="sans-serif" font-size="13" lengthAdjust="spacing" textLength="264" x="498" y="246.4575">request to join, AK pub, AK name, EK cert</text><path d="M784,217.2578 L784,272.2578 L1075,272.2578 L1075,227.2578 L1065,217.2578 L784,217.2578 " fill="#FEFFDD" style="stroke:#181818;stroke-width:0.5;"/><path d="M1065,217.2578 L1065,227.2578 L1075,227.2578 L1065,217.2578 " fill="#FEFFDD" style="stroke:#181818;stroke-width:0.5;"/><text fill="#000000" font-family="sans-serif" font-size="13" lengthAdjust="spacing" textLength="216" x="790" y="234.3247">The attester notifies its presence.</text><text fill="#000000" font-family="sans-serif" font-size="13" lengthAdjust="spacing" textLength="270" x="790" y="249.4575">The join server responds with a challenge,</text><text fill="#000000" font-family="sans-serif" font-size="13" lengthAdjust="spacing" textLength="174" x="790" y="264.5903">or OK if already in its group</text><line style="stroke:#181818;stroke-width:1.0;" x1="779" x2="821" y1="302.8555" y2="302.8555"/><line style="stroke:#181818;stroke-width:1.0;" x1="821" x2="821" y1="302.8555" y2="315.8555"/><line style="stroke:#181818;stroke-width:1.0;" x1="780" x2="821" y1="315.8555" y2="315.8555"/><polygon fill="#181818" points="790,311.8555,780,315.8555,790,319.8555,786,315.8555" style="stroke:#181818;stroke-width:1.0;"/><text fill="#000000" font-family="sans-serif" font-size="13" font-weight="bold" lengthAdjust="spacing" textLength="9" x="786" y="297.7896">6</text><text fill="#000000" font-family="sans-serif" font-size="13" lengthAdjust="spacing" textLength="103" x="799" y="297.7896">validate EK_cert</text><path d="M914,282.6563 L914,322.6563 L1159,322.6563 L1159,292.6563 L1149,282.6563 L914,282.6563 " fill="#FEFFDD" style="stroke:#181818;stroke-width:0.5;"/><path d="M1149,282.6563 L1149,292.6563 L1159,292.6563 L1149,282.6563 " fill="#FEFFDD" style="stroke:#181818;stroke-width:0.5;"/><text fill="#000000" font-family="sans-serif" font-size="13" lengthAdjust="spacing" textLength="104" x="920" y="299.7231">TPM is authentic</text><text fill="#000000" font-family="sans-serif" font-size="13" lengthAdjust="spacing" textLength="224" x="920" y="314.856">(validation of the EK certificate OK)</text><line style="stroke:#181818;stroke-width:1.0;" x1="779" x2="821" y1="349.0547" y2="349.0547"/><line style="stroke:#181818;stroke-width:1.0;" x1="821" x2="821" y1="349.0547" y2="362.0547"/><line style="stroke:#181818;stroke-width:1.0;" x1="780" x2="821" y1="362.0547" y2="362.0547"/><polygon fill="#181818" points="790,358.0547,780,362.0547,790,366.0547,786,362.0547" style="stroke:#181818;stroke-width:1.0;"/><text fill="#000000" font-family="sans-serif" font-size="13" font-weight="bold" lengthAdjust="spacing" textLength="9" x="786" y="343.9888">7</text><text fill="#000000" font-family="sans-serif" font-size="13" lengthAdjust="spacing" textLength="392" x="799" y="343.9888">challenge = tpm2_makecredential(EK_pub, nonce, AK_name)</text><polygon fill="#181818" points="489,387.1875,479,391.1875,489,395.1875,485,391.1875" style="stroke:#181818;stroke-width:1.0;"/><line style="stroke:#181818;stroke-width:1.0;" x1="483" x2="778" y1="391.1875" y2="391.1875"/><text fill="#000000" font-family="sans-serif" font-size="13" font-weight="bold" lengthAdjust="spacing" textLength="9" x="495" y="386.1216">8</text><text fill="#000000" font-family="sans-serif" font-size="13" lengthAdjust="spacing" textLength="61" x="508" y="386.1216">challenge</text><polygon fill="#181818" points="296,442.0195,286,446.0195,296,450.0195,292,446.0195" style="stroke:#181818;stroke-width:1.0;"/><line style="stroke:#181818;stroke-width:1.0;" x1="290" x2="477" y1="446.0195" y2="446.0195"/><text fill="#000000" font-family="sans-serif" font-size="13" font-weight="bold" lengthAdjust="spacing" textLength="9" x="302" y="440.9536">9</text><text fill="#000000" font-family="sans-serif" font-size="13" lengthAdjust="spacing" textLength="156" x="315" y="440.9536">tpm2_activatecredential</text><path d="M39,404.1875 L39,474.1875 L280,474.1875 L280,414.1875 L270,404.1875 L39,404.1875 " fill="#FEFFDD" style="stroke:#181818;stroke-width:0.5;"/><path d="M270,404.1875 L270,414.1875 L280,414.1875 L270,404.1875 " fill="#FEFFDD" style="stroke:#181818;stroke-width:0.5;"/><text fill="#000000" font-family="sans-serif" font-size="13" lengthAdjust="spacing" textLength="203" x="45" y="421.2544">tpm_activate credential verifies</text><text fill="#000000" font-family="sans-serif" font-size="13" lengthAdjust="spacing" textLength="220" x="45" y="436.3872">the possession of AK_priv, EK_priv</text><text fill="#000000" font-family="sans-serif" font-size="13" lengthAdjust="spacing" textLength="203" x="45" y="451.52">and verifies that they are in the</text><text fill="#000000" font-family="sans-serif" font-size="13" lengthAdjust="spacing" textLength="66" x="45" y="466.6528">same TPM</text><line style="stroke:#181818;stroke-width:1.0;" x1="243" x2="285" y1="500.8516" y2="500.8516"/><line style="stroke:#181818;stroke-width:1.0;" x1="243" x2="243" y1="500.8516" y2="513.8516"/><line style="stroke:#181818;stroke-width:1.0;" x1="243" x2="284" y1="513.8516" y2="513.8516"/><polygon fill="#181818" points="276,509.8516,286,513.8516,276,517.8516,280,513.8516" style="stroke:#181818;stroke-width:1.0;"/><text fill="#000000" font-family="sans-serif" font-size="13" font-weight="bold" lengthAdjust="spacing" textLength="19" x="14" y="495.7856">10</text><text fill="#000000" font-family="sans-serif" font-size="13" lengthAdjust="spacing" textLength="248" x="37" y="495.7856">activate_credential(EK_priv, challenge)</text><polygon fill="#181818" points="466,538.9844,476,542.9844,466,546.9844,470,542.9844" style="stroke:#181818;stroke-width:1.0;"/><line style="stroke:#181818;stroke-width:1.0;" x1="285" x2="472" y1="542.9844" y2="542.9844"/><text fill="#000000" font-family="sans-serif" font-size="13" font-weight="bold" lengthAdjust="spacing" textLength="18" x="292" y="537.9185">11</text><text fill="#000000" font-family="sans-serif" font-size="13" lengthAdjust="spacing" textLength="39" x="314" y="537.9185">nonce</text><polygon fill="#181818" points="767,568.1172,777,572.1172,767,576.1172,771,572.1172" style="stroke:#181818;stroke-width:1.0;"/><line style="stroke:#181818;stroke-width:1.0;" x1="478" x2="773" y1="572.1172" y2="572.1172"/><text fill="#000000" font-family="sans-serif" font-size="13" font-weight="bold" lengthAdjust="spacing" textLength="18" x="485" y="567.0513">12</text><text fill="#000000" font-family="sans-serif" font-size="13" lengthAdjust="spacing" textLength="39" x="507" y="567.0513">nonce</text><line style="stroke:#181818;stroke-width:1.0;" x1="779" x2="821" y1="601.25" y2="601.25"/><line style="stroke:#181818;stroke-width:1.0;" x1="821" x2="821" y1="601.25" y2="614.25"/><line style="stroke:#181818;stroke-width:1.0;" x1="780" x2="821" y1="614.25" y2="614.25"/><polygon fill="#181818" points="790,610.25,780,614.25,790,618.25,786,614.25" style="stroke:#181818;stroke-width:1.0;"/><text fill="#000000" font-family="sans-serif" font-size="13" font-weight="bold" lengthAdjust="spacing" textLength="17" x="786" y="596.1841">13</text><text fill="#000000" font-family="sans-serif" font-size="13" lengthAdjust="spacing" textLength="85" x="807" y="596.1841">Add AK to DB</text><polygon fill="#181818" points="1186,639.3828,1196,643.3828,1186,647.3828,1190,643.3828" style="stroke:#181818;stroke-width:1.0;"/><line style="stroke:#181818;stroke-width:1.0;" x1="779" x2="1192" y1="643.3828" y2="643.3828"/><text fill="#000000" font-family="sans-serif" font-size="13" font-weight="bold" lengthAdjust="spacing" textLength="18" x="786" y="638.3169">14</text><text fill="#000000" font-family="sans-serif" font-size="13" lengthAdjust="spacing" textLength="263" x="808" y="638.3169">notify verifiers of new agent in the group</text><!--SRC=[VLF1Rjf04BtlLuoua4YGGuyeZaJKAbBTYaYfUefaBVOOjh5ttTqnAN_VcLqCCOXm03D-ysRUcvaf6MfGJPT460WzV7V6GkSTkT8rQegsWWJHFJdRjslqIgtTFvWyDvfgvzk9whGdKvfEMu9Vppz7_oS3ywjTRj3I17G0VOWLMaAAYp3ZE4twUBKlw7Ucn9ZqXoD5I06bfba6FvOvb1ur6MSXonJNlf-FkHT0NVkbY2ZKRmd2NmjuGekUWx3C4ziBSVsn_gka7l_s781lUL6Y9m7D7yv1myjnVFxmKSY9YbnKEED-eElNyTVg5cVC0v77EkxMcysMwstnQ29mtDG60nWAt3e6j2NUHOmmWfHY6B_edAq2l1lQWePogvi6xGPdodbOvM1gq0qRLUs1iuHiurtVoNYaXfZE08eWnWWtLXmRJURIXbNE66n2waQTmyTkx7HZAfdAO1x01zd07xOQ3AzGJrkcDsKCtXpoP15S3VngS8sTAOLlbTyoyYZbyowEra2MzgVLRyWxL4b5tTnmSt54rh7JCgb29YK5nkBlvrTuLTHnPLbrIMR7FPyA3YuqM2SJ67U4mGa7FEUu2Wd4BdGk10pXu0itsdcpavMA3n6csPCXZtCqIU8Uj4TP0twEgC02ut6FJ3oTqz1DSMPJB7VKVPjoBfSaEddXt_bS1jHdirjMbPmEdzFNnmlexwJJXqMwclsWt0Vnn-8xnC87vOS3c8ha_m00]--></g></svg>