<?xml version="1.0" encoding="us-ascii" standalone="no"?><svg xmlns="http://www.w3.org/2000/svg" xmlns:xlink="http://www.w3.org/1999/xlink" contentStyleType="text/css" height="951px" preserveAspectRatio="none" style="width:1043px;height:951px;background:#FFFFFF;" version="1.1" viewBox="0 0 1043 951" width="1043px" zoomAndPan="magnify"><defs/><g><text fill="#000000" font-family="sans-serif" font-size="14" font-weight="bold" lengthAdjust="spacing" textLength="104" x="465.75" y="27.9951">Join protocol</text><rect fill="#DDDDDD" height="901.7734" style="stroke:#181818;stroke-width:0.5;" width="262" x="225" y="43.2969"/><text fill="#000000" font-family="sans-serif" font-size="13" font-weight="bold" lengthAdjust="spacing" textLength="69" x="321.5" y="55.3638">Platform</text><line style="stroke:#181818;stroke-width:0.5;stroke-dasharray:5.0,5.0;" x1="251" x2="251" y1="110.0234" y2="894.4766"/><line style="stroke:#181818;stroke-width:0.5;stroke-dasharray:5.0,5.0;" x1="445" x2="445" y1="110.0234" y2="894.4766"/><line style="stroke:#181818;stroke-width:0.5;stroke-dasharray:5.0,5.0;" x1="573.5" x2="573.5" y1="110.0234" y2="894.4766"/><line style="stroke:#181818;stroke-width:0.5;stroke-dasharray:5.0,5.0;" x1="634.5" x2="634.5" y1="110.0234" y2="894.4766"/><rect fill="#E2E2F0" height="30.2969" rx="2.5" ry="2.5" style="stroke:#181818;stroke-width:0.5;" width="44" x="229" y="78.7266"/><text fill="#000000" font-family="sans-serif" font-size="14" lengthAdjust="spacing" textLength="30" x="236" y="98.7217">TPM</text><rect fill="#E2E2F0" height="30.2969" rx="2.5" ry="2.5" style="stroke:#181818;stroke-width:0.5;" width="44" x="229" y="893.4766"/><text fill="#000000" font-family="sans-serif" font-size="14" lengthAdjust="spacing" textLength="30" x="236" y="913.4717">TPM</text><rect fill="#E2E2F0" height="46.5938" rx="2.5" ry="2.5" style="stroke:#181818;stroke-width:0.5;" width="76" x="407" y="62.4297"/><text fill="#000000" font-family="sans-serif" font-size="14" lengthAdjust="spacing" textLength="62" x="414" y="82.4248">Attester</text><text fill="#000000" font-family="sans-serif" font-size="14" lengthAdjust="spacing" textLength="44" x="423" y="98.7217">Agent</text><rect fill="#E2E2F0" height="46.5938" rx="2.5" ry="2.5" style="stroke:#181818;stroke-width:0.5;" width="76" x="407" y="893.4766"/><text fill="#000000" font-family="sans-serif" font-size="14" lengthAdjust="spacing" textLength="62" x="414" y="913.4717">Attester</text><text fill="#000000" font-family="sans-serif" font-size="14" lengthAdjust="spacing" textLength="44" x="423" y="929.7686">Agent</text><rect fill="#E2E2F0" height="46.5938" rx="2.5" ry="2.5" style="stroke:#181818;stroke-width:0.5;" width="67" x="540.5" y="62.4297"/><text fill="#000000" font-family="sans-serif" font-size="14" lengthAdjust="spacing" textLength="26" x="561" y="82.4248">Join</text><text fill="#000000" font-family="sans-serif" font-size="14" lengthAdjust="spacing" textLength="53" x="547.5" y="98.7217">Service</text><rect fill="#E2E2F0" height="46.5938" rx="2.5" ry="2.5" style="stroke:#181818;stroke-width:0.5;" width="67" x="540.5" y="893.4766"/><text fill="#000000" font-family="sans-serif" font-size="14" lengthAdjust="spacing" textLength="26" x="561" y="913.4717">Join</text><text fill="#000000" font-family="sans-serif" font-size="14" lengthAdjust="spacing" textLength="53" x="547.5" y="929.7686">Service</text><rect fill="#E2E2F0" height="30.2969" rx="2.5" ry="2.5" style="stroke:#181818;stroke-width:0.5;" width="34" x="617.5" y="78.7266"/><text fill="#000000" font-family="sans-serif" font-size="14" lengthAdjust="spacing" textLength="20" x="624.5" y="98.7217">CA</text><rect fill="#E2E2F0" height="30.2969" rx="2.5" ry="2.5" style="stroke:#181818;stroke-width:0.5;" width="34" x="617.5" y="893.4766"/><text fill="#000000" font-family="sans-serif" font-size="14" lengthAdjust="spacing" textLength="20" x="624.5" y="913.4717">CA</text><rect fill="#EEEEEE" height="3" style="stroke:#EEEEEE;stroke-width:1.0;" width="1036.5" x="0" y="140.5898"/><line style="stroke:#000000;stroke-width:1.0;" x1="0" x2="1036.5" y1="140.5898" y2="140.5898"/><line style="stroke:#000000;stroke-width:1.0;" x1="0" x2="1036.5" y1="143.5898" y2="143.5898"/><rect fill="#EEEEEE" height="23.1328" style="stroke:#000000;stroke-width:2.0;" width="116" x="460.25" y="130.0234"/><text fill="#000000" font-family="sans-serif" font-size="13" font-weight="bold" lengthAdjust="spacing" textLength="97" x="466.25" y="146.0903">LAK creation</text><polygon fill="#181818" points="262,180.2891,252,184.2891,262,188.2891,258,184.2891" style="stroke:#181818;stroke-width:1.0;"/><line style="stroke:#181818;stroke-width:1.0;" x1="256" x2="444" y1="184.2891" y2="184.2891"/><text fill="#000000" font-family="sans-serif" font-size="13" font-weight="bold" lengthAdjust="spacing" textLength="9" x="268" y="179.2231">1</text><text fill="#000000" font-family="sans-serif" font-size="13" lengthAdjust="spacing" textLength="89" x="281" y="179.2231">tpm_createak</text><line style="stroke:#181818;stroke-width:1.0;" x1="209" x2="251" y1="213.4219" y2="213.4219"/><line style="stroke:#181818;stroke-width:1.0;" x1="209" x2="209" y1="213.4219" y2="226.4219"/><line style="stroke:#181818;stroke-width:1.0;" x1="209" x2="250" y1="226.4219" y2="226.4219"/><polygon fill="#181818" points="242,222.4219,252,226.4219,242,230.4219,246,226.4219" style="stroke:#181818;stroke-width:1.0;"/><text fill="#000000" font-family="sans-serif" font-size="13" font-weight="bold" lengthAdjust="spacing" textLength="9" x="150" y="208.356">2</text><text fill="#000000" font-family="sans-serif" font-size="13" lengthAdjust="spacing" textLength="88" x="163" y="208.356">Generate LAK</text><rect fill="#EEEEEE" height="3" style="stroke:#EEEEEE;stroke-width:1.0;" width="1036.5" x="0" y="254.9883"/><line style="stroke:#000000;stroke-width:1.0;" x1="0" x2="1036.5" y1="254.9883" y2="254.9883"/><line style="stroke:#000000;stroke-width:1.0;" x1="0" x2="1036.5" y1="257.9883" y2="257.9883"/><rect fill="#EEEEEE" height="23.1328" style="stroke:#000000;stroke-width:2.0;" width="164" x="436.25" y="244.4219"/><text fill="#000000" font-family="sans-serif" font-size="13" font-weight="bold" lengthAdjust="spacing" textLength="145" x="442.25" y="260.4888">Start Join protocol</text><polygon fill="#181818" points="262,294.6875,252,298.6875,262,302.6875,258,298.6875" style="stroke:#181818;stroke-width:1.0;"/><line style="stroke:#181818;stroke-width:1.0;" x1="256" x2="444" y1="298.6875" y2="298.6875"/><text fill="#000000" font-family="sans-serif" font-size="13" font-weight="bold" lengthAdjust="spacing" textLength="8" x="268" y="293.6216">3</text><text fill="#000000" font-family="sans-serif" font-size="13" lengthAdjust="spacing" textLength="101" x="280" y="293.6216">request EK_cert</text><polygon fill="#181818" points="433,323.8203,443,327.8203,433,331.8203,437,327.8203" style="stroke:#181818;stroke-width:1.0;"/><line style="stroke:#181818;stroke-width:1.0;" x1="251" x2="439" y1="327.8203" y2="327.8203"/><text fill="#000000" font-family="sans-serif" font-size="13" font-weight="bold" lengthAdjust="spacing" textLength="9" x="258" y="322.7544">4</text><text fill="#000000" font-family="sans-serif" font-size="13" lengthAdjust="spacing" textLength="48" x="271" y="322.7544">EK_cert</text><polygon fill="#181818" points="562,363.5195,572,367.5195,562,371.5195,566,367.5195" style="stroke:#181818;stroke-width:1.0;"/><line style="stroke:#181818;stroke-width:1.0;" x1="445" x2="568" y1="367.5195" y2="367.5195"/><text fill="#000000" font-family="sans-serif" font-size="13" font-weight="bold" lengthAdjust="spacing" textLength="9" x="452" y="362.4536">5</text><text fill="#000000" font-family="sans-serif" font-size="13" lengthAdjust="spacing" textLength="92" x="465" y="362.4536">request to join</text><path d="M579,340.8203 L579,380.8203 L857,380.8203 L857,350.8203 L847,340.8203 L579,340.8203 " fill="#FEFFDD" style="stroke:#181818;stroke-width:0.5;"/><path d="M847,340.8203 L847,350.8203 L857,350.8203 L847,340.8203 " fill="#FEFFDD" style="stroke:#181818;stroke-width:0.5;"/><text fill="#000000" font-family="sans-serif" font-size="13" lengthAdjust="spacing" textLength="240" x="585" y="357.8872">The attester notifies its presence and</text><text fill="#000000" font-family="sans-serif" font-size="13" lengthAdjust="spacing" textLength="257" x="585" y="373.02">get the informatin to obtain a certificate</text><polygon fill="#181818" points="456,403.2188,446,407.2188,456,411.2188,452,407.2188" style="stroke:#181818;stroke-width:1.0;"/><line style="stroke:#181818;stroke-width:1.0;" x1="450" x2="573" y1="407.2188" y2="407.2188"/><text fill="#000000" font-family="sans-serif" font-size="13" font-weight="bold" lengthAdjust="spacing" textLength="9" x="462" y="402.1528">6</text><text fill="#000000" font-family="sans-serif" font-size="13" lengthAdjust="spacing" textLength="46" x="475" y="402.1528">CA info</text><rect fill="#EEEEEE" height="3" style="stroke:#EEEEEE;stroke-width:1.0;" width="1036.5" x="0" y="435.7852"/><line style="stroke:#000000;stroke-width:1.0;" x1="0" x2="1036.5" y1="435.7852" y2="435.7852"/><line style="stroke:#000000;stroke-width:1.0;" x1="0" x2="1036.5" y1="438.7852" y2="438.7852"/><rect fill="#EEEEEE" height="23.1328" style="stroke:#000000;stroke-width:2.0;" width="158" x="439.25" y="425.2188"/><text fill="#000000" font-family="sans-serif" font-size="13" font-weight="bold" lengthAdjust="spacing" textLength="139" x="445.25" y="441.2856">Certificate issuing</text><polygon fill="#181818" points="622.5,475.4844,632.5,479.4844,622.5,483.4844,626.5,479.4844" style="stroke:#181818;stroke-width:1.0;"/><line style="stroke:#181818;stroke-width:1.0;" x1="445" x2="628.5" y1="479.4844" y2="479.4844"/><text fill="#000000" font-family="sans-serif" font-size="13" font-weight="bold" lengthAdjust="spacing" textLength="9" x="452" y="474.4185">7</text><text fill="#000000" font-family="sans-serif" font-size="13" lengthAdjust="spacing" textLength="100" x="465" y="474.4185">LAK csr, EK cert</text><line style="stroke:#181818;stroke-width:1.0;" x1="634.5" x2="676.5" y1="512.6836" y2="512.6836"/><line style="stroke:#181818;stroke-width:1.0;" x1="676.5" x2="676.5" y1="512.6836" y2="525.6836"/><line style="stroke:#181818;stroke-width:1.0;" x1="635.5" x2="676.5" y1="525.6836" y2="525.6836"/><polygon fill="#181818" points="645.5,521.6836,635.5,525.6836,645.5,529.6836,641.5,525.6836" style="stroke:#181818;stroke-width:1.0;"/><text fill="#000000" font-family="sans-serif" font-size="13" font-weight="bold" lengthAdjust="spacing" textLength="9" x="641.5" y="507.6177">8</text><text fill="#000000" font-family="sans-serif" font-size="13" lengthAdjust="spacing" textLength="103" x="654.5" y="507.6177">validate EK_cert</text><path d="M769,492.4844 L769,532.4844 L1014,532.4844 L1014,502.4844 L1004,492.4844 L769,492.4844 " fill="#FEFFDD" style="stroke:#181818;stroke-width:0.5;"/><path d="M1004,492.4844 L1004,502.4844 L1014,502.4844 L1004,492.4844 " fill="#FEFFDD" style="stroke:#181818;stroke-width:0.5;"/><text fill="#000000" font-family="sans-serif" font-size="13" lengthAdjust="spacing" textLength="104" x="775" y="509.5513">TPM is authentic</text><text fill="#000000" font-family="sans-serif" font-size="13" lengthAdjust="spacing" textLength="224" x="775" y="524.6841">(validation of the EK certificate OK)</text><line style="stroke:#181818;stroke-width:1.0;" x1="634.5" x2="676.5" y1="574.0156" y2="574.0156"/><line style="stroke:#181818;stroke-width:1.0;" x1="676.5" x2="676.5" y1="574.0156" y2="587.0156"/><line style="stroke:#181818;stroke-width:1.0;" x1="635.5" x2="676.5" y1="587.0156" y2="587.0156"/><polygon fill="#181818" points="645.5,583.0156,635.5,587.0156,645.5,591.0156,641.5,587.0156" style="stroke:#181818;stroke-width:1.0;"/><text fill="#000000" font-family="sans-serif" font-size="13" font-weight="bold" lengthAdjust="spacing" textLength="9" x="641.5" y="561.3833">9</text><text fill="#000000" font-family="sans-serif" font-size="13" lengthAdjust="spacing" textLength="132" x="654.5" y="553.8169">tpm_makecredential</text><text fill="#000000" font-family="sans-serif" font-size="13" lengthAdjust="spacing" textLength="269" x="654.5" y="568.9497">challenge = enc(EK_pub, nonce, LAK_pub)</text><polygon fill="#181818" points="456,612.1484,446,616.1484,456,620.1484,452,616.1484" style="stroke:#181818;stroke-width:1.0;"/><line style="stroke:#181818;stroke-width:1.0;" x1="450" x2="633.5" y1="616.1484" y2="616.1484"/><text fill="#000000" font-family="sans-serif" font-size="13" font-weight="bold" lengthAdjust="spacing" textLength="19" x="462" y="611.0825">10</text><text fill="#000000" font-family="sans-serif" font-size="13" lengthAdjust="spacing" textLength="61" x="485" y="611.0825">challenge</text><polygon fill="#181818" points="262,666.9805,252,670.9805,262,674.9805,258,670.9805" style="stroke:#181818;stroke-width:1.0;"/><line style="stroke:#181818;stroke-width:1.0;" x1="256" x2="444" y1="670.9805" y2="670.9805"/><text fill="#000000" font-family="sans-serif" font-size="13" font-weight="bold" lengthAdjust="spacing" textLength="18" x="268" y="665.9146">11</text><text fill="#000000" font-family="sans-serif" font-size="13" lengthAdjust="spacing" textLength="148" x="290" y="665.9146">tpm_activatecredential</text><path d="M5,629.1484 L5,699.1484 L246,699.1484 L246,639.1484 L236,629.1484 L5,629.1484 " fill="#FEFFDD" style="stroke:#181818;stroke-width:0.5;"/><path d="M236,629.1484 L236,639.1484 L246,639.1484 L236,629.1484 " fill="#FEFFDD" style="stroke:#181818;stroke-width:0.5;"/><text fill="#000000" font-family="sans-serif" font-size="13" lengthAdjust="spacing" textLength="203" x="11" y="646.2153">tpm_activate credential verifies</text><text fill="#000000" font-family="sans-serif" font-size="13" lengthAdjust="spacing" textLength="220" x="11" y="661.3481">the possession of AK_priv, EK_priv</text><text fill="#000000" font-family="sans-serif" font-size="13" lengthAdjust="spacing" textLength="203" x="11" y="676.481">and verifies that they are in the</text><text fill="#000000" font-family="sans-serif" font-size="13" lengthAdjust="spacing" textLength="66" x="11" y="691.6138">same TPM</text><line style="stroke:#181818;stroke-width:1.0;" x1="209" x2="251" y1="725.8125" y2="725.8125"/><line style="stroke:#181818;stroke-width:1.0;" x1="209" x2="209" y1="725.8125" y2="738.8125"/><line style="stroke:#181818;stroke-width:1.0;" x1="209" x2="250" y1="738.8125" y2="738.8125"/><polygon fill="#181818" points="242,734.8125,252,738.8125,242,742.8125,246,738.8125" style="stroke:#181818;stroke-width:1.0;"/><text fill="#000000" font-family="sans-serif" font-size="13" font-weight="bold" lengthAdjust="spacing" textLength="18" x="80" y="720.7466">12</text><text fill="#000000" font-family="sans-serif" font-size="13" lengthAdjust="spacing" textLength="149" x="102" y="720.7466">dec(EK_priv, challenge)</text><polygon fill="#181818" points="433,763.9453,443,767.9453,433,771.9453,437,767.9453" style="stroke:#181818;stroke-width:1.0;"/><line style="stroke:#181818;stroke-width:1.0;" x1="251" x2="439" y1="767.9453" y2="767.9453"/><text fill="#000000" font-family="sans-serif" font-size="13" font-weight="bold" lengthAdjust="spacing" textLength="17" x="258" y="762.8794">13</text><text fill="#000000" font-family="sans-serif" font-size="13" lengthAdjust="spacing" textLength="39" x="279" y="762.8794">nonce</text><polygon fill="#181818" points="622.5,793.0781,632.5,797.0781,622.5,801.0781,626.5,797.0781" style="stroke:#181818;stroke-width:1.0;"/><line style="stroke:#181818;stroke-width:1.0;" x1="445" x2="628.5" y1="797.0781" y2="797.0781"/><text fill="#000000" font-family="sans-serif" font-size="13" font-weight="bold" lengthAdjust="spacing" textLength="18" x="452" y="792.0122">14</text><text fill="#000000" font-family="sans-serif" font-size="13" lengthAdjust="spacing" textLength="39" x="474" y="792.0122">nonce</text><line style="stroke:#181818;stroke-width:1.0;" x1="634.5" x2="676.5" y1="830.2773" y2="830.2773"/><line style="stroke:#181818;stroke-width:1.0;" x1="676.5" x2="676.5" y1="830.2773" y2="843.2773"/><line style="stroke:#181818;stroke-width:1.0;" x1="635.5" x2="676.5" y1="843.2773" y2="843.2773"/><polygon fill="#181818" points="645.5,839.2773,635.5,843.2773,645.5,847.2773,641.5,843.2773" style="stroke:#181818;stroke-width:1.0;"/><text fill="#000000" font-family="sans-serif" font-size="13" font-weight="bold" lengthAdjust="spacing" textLength="18" x="641.5" y="825.2114">15</text><text fill="#000000" font-family="sans-serif" font-size="13" lengthAdjust="spacing" textLength="93" x="663.5" y="825.2114">issue LAK_cert</text><path d="M768,810.0781 L768,850.0781 L1026,850.0781 L1026,820.0781 L1016,810.0781 L768,810.0781 " fill="#FEFFDD" style="stroke:#181818;stroke-width:0.5;"/><path d="M1016,810.0781 L1016,820.0781 L1026,820.0781 L1016,810.0781 " fill="#FEFFDD" style="stroke:#181818;stroke-width:0.5;"/><text fill="#000000" font-family="sans-serif" font-size="13" lengthAdjust="spacing" textLength="237" x="774" y="827.145">The CA verify the posses of the keys</text><text fill="#000000" font-family="sans-serif" font-size="13" lengthAdjust="spacing" textLength="187" x="774" y="842.2778">and emits the LAK certitfacte</text><polygon fill="#181818" points="456,872.4766,446,876.4766,456,880.4766,452,876.4766" style="stroke:#181818;stroke-width:1.0;"/><line style="stroke:#181818;stroke-width:1.0;" x1="450" x2="633.5" y1="876.4766" y2="876.4766"/><text fill="#000000" font-family="sans-serif" font-size="13" font-weight="bold" lengthAdjust="spacing" textLength="18" x="462" y="871.4106">16</text><text fill="#000000" font-family="sans-serif" font-size="13" lengthAdjust="spacing" textLength="56" x="484" y="871.4106">LAK_cert</text><!--SRC=[TLDTR-8m47pthrZnqYA1-evAfGYTJZfQ7LBl4IaoOGC-4Zkr5tJy-zkryq5e-uB2UZqxCpicGnMgNyvOQBmZLxXAeTq3nRe-axFdUeTUgPtx1vDDfQbqlfweHdioXMcq9VYpUHlzdsH460ZzrcO7j3G17K2tjLnBIOOmulYQqDZQT_GNKs2yz9ShUKW5fPPBUCtMK7ZKP9o5vLBnwEVv67e1rDHvR49zIXtyim3uYHOzLmKbehqJZuUH-cz1FNwSkG0_rdc1dgHf_dBVr1sEw_ENMnq35BaeK5d7dBmv71drYBrJm7LJ6WnWA31136WBFhPxTK2-pQt6oZRO3IjWRaUQlpG81xvPiDQuJHcWRZbyPhxA8bYqPJLS1nF2sTY3s78lQfKjqZw2dx7oE5MjidHmqPNP2q1doQt8pHlZ0gVho42cK8zjjopLbL5PYzVH-BsU3agw6RBdMf-GTxqN85rjRN7KLONsWB04jkkHnpVdtOmlidSpuIl_f-hfuOQGg612xB0H860QmY7e6YNSp4crdBIyZMEgDYu4NauwoHjlBZt5XwSxjvxdGhWdztrkTK7cmee7JScv2ajIjmqmTC05VGnAP9beXTRBB36RzHH5GTVFt7KCqXMqbpJ9j-fa3uOFRsYFoT88sSkPVlqQekTVnYQTT7kKZCL7-Jafh8UJ6VbUOL3NfUI4rn0LOIrlH4enaP8SAjag7AVcdc4typy0]--></g></svg>