<?xml version="1.0" encoding="us-ascii" standalone="no"?><svg xmlns="http://www.w3.org/2000/svg" xmlns:xlink="http://www.w3.org/1999/xlink" contentStyleType="text/css" height="850px" preserveAspectRatio="none" style="width:939px;height:850px;background:#FFFFFF;" version="1.1" viewBox="0 0 939 850" width="939px" zoomAndPan="magnify"><defs/><g><text fill="#000000" font-family="sans-serif" font-size="14" font-weight="bold" lengthAdjust="spacing" textLength="237" x="350.5" y="27.9951">Remote Attestation protocol</text><rect fill="#DDDDDD" height="800.8438" style="stroke:#181818;stroke-width:0.5;" width="269" x="16" y="43.2969"/><text fill="#000000" font-family="sans-serif" font-size="13" font-weight="bold" lengthAdjust="spacing" textLength="69" x="116" y="55.3638">Platform</text><rect fill="none" height="565.2578" style="stroke:#000000;stroke-width:1.5;" width="817.5" x="10" y="127.0234"/><rect fill="none" height="132.5313" style="stroke:#000000;stroke-width:1.5;" width="363.5" x="454" y="552.75"/><line style="stroke:#181818;stroke-width:0.5;stroke-dasharray:5.0,5.0;" x1="42" x2="42" y1="110.0234" y2="793.5469"/><line style="stroke:#181818;stroke-width:0.5;stroke-dasharray:5.0,5.0;" x1="243" x2="243" y1="110.0234" y2="793.5469"/><line style="stroke:#181818;stroke-width:0.5;stroke-dasharray:5.0,5.0;" x1="498" x2="498" y1="110.0234" y2="793.5469"/><line style="stroke:#181818;stroke-width:0.5;stroke-dasharray:5.0,5.0;" x1="758.5" x2="758.5" y1="110.0234" y2="793.5469"/><rect fill="#E2E2F0" height="30.2969" rx="2.5" ry="2.5" style="stroke:#181818;stroke-width:0.5;" width="44" x="20" y="78.7266"/><text fill="#000000" font-family="sans-serif" font-size="14" lengthAdjust="spacing" textLength="30" x="27" y="98.7217">TPM</text><rect fill="#E2E2F0" height="30.2969" rx="2.5" ry="2.5" style="stroke:#181818;stroke-width:0.5;" width="44" x="20" y="792.5469"/><text fill="#000000" font-family="sans-serif" font-size="14" lengthAdjust="spacing" textLength="30" x="27" y="812.542">TPM</text><rect fill="#E2E2F0" height="46.5938" rx="2.5" ry="2.5" style="stroke:#181818;stroke-width:0.5;" width="76" x="205" y="62.4297"/><text fill="#000000" font-family="sans-serif" font-size="14" lengthAdjust="spacing" textLength="62" x="212" y="82.4248">Attester</text><text fill="#000000" font-family="sans-serif" font-size="14" lengthAdjust="spacing" textLength="44" x="221" y="98.7217">Agent</text><rect fill="#E2E2F0" height="46.5938" rx="2.5" ry="2.5" style="stroke:#181818;stroke-width:0.5;" width="76" x="205" y="792.5469"/><text fill="#000000" font-family="sans-serif" font-size="14" lengthAdjust="spacing" textLength="62" x="212" y="812.542">Attester</text><text fill="#000000" font-family="sans-serif" font-size="14" lengthAdjust="spacing" textLength="44" x="221" y="828.8389">Agent</text><rect fill="#E2E2F0" height="30.2969" rx="2.5" ry="2.5" style="stroke:#181818;stroke-width:0.5;" width="68" x="464" y="78.7266"/><text fill="#000000" font-family="sans-serif" font-size="14" lengthAdjust="spacing" textLength="54" x="471" y="98.7217">Verifier</text><rect fill="#E2E2F0" height="30.2969" rx="2.5" ry="2.5" style="stroke:#181818;stroke-width:0.5;" width="68" x="464" y="792.5469"/><text fill="#000000" font-family="sans-serif" font-size="14" lengthAdjust="spacing" textLength="54" x="471" y="812.542">Verifier</text><rect fill="#E2E2F0" height="30.2969" rx="2.5" ry="2.5" style="stroke:#181818;stroke-width:0.5;" width="97" x="710.5" y="78.7266"/><text fill="#000000" font-family="sans-serif" font-size="14" lengthAdjust="spacing" textLength="83" x="717.5" y="98.7217">Join Service</text><rect fill="#E2E2F0" height="30.2969" rx="2.5" ry="2.5" style="stroke:#181818;stroke-width:0.5;" width="97" x="710.5" y="792.5469"/><text fill="#000000" font-family="sans-serif" font-size="14" lengthAdjust="spacing" textLength="83" x="717.5" y="812.542">Join Service</text><path d="M10,127.0234 L88,127.0234 L88,134.1563 L78,144.1563 L10,144.1563 L10,127.0234 " fill="#EEEEEE" style="stroke:#000000;stroke-width:1.5;"/><rect fill="none" height="565.2578" style="stroke:#000000;stroke-width:1.5;" width="817.5" x="10" y="127.0234"/><text fill="#000000" font-family="sans-serif" font-size="13" font-weight="bold" lengthAdjust="spacing" textLength="33" x="25" y="140.0903">loop</text><polygon fill="#181818" points="254,161.2891,244,165.2891,254,169.2891,250,165.2891" style="stroke:#181818;stroke-width:1.0;"/><line style="stroke:#181818;stroke-width:1.0;" x1="248" x2="497" y1="165.2891" y2="165.2891"/><text fill="#000000" font-family="sans-serif" font-size="13" font-weight="bold" lengthAdjust="spacing" textLength="9" x="260" y="160.2231">1</text><text fill="#000000" font-family="sans-serif" font-size="13" lengthAdjust="spacing" textLength="218" x="273" y="160.2231">Attestation request (PCRs, nonce)</text><polygon fill="#181818" points="53,190.4219,43,194.4219,53,198.4219,49,194.4219" style="stroke:#181818;stroke-width:1.0;"/><line style="stroke:#181818;stroke-width:1.0;" x1="47" x2="242" y1="194.4219" y2="194.4219"/><text fill="#000000" font-family="sans-serif" font-size="13" font-weight="bold" lengthAdjust="spacing" textLength="9" x="59" y="189.356">2</text><text fill="#000000" font-family="sans-serif" font-size="13" lengthAdjust="spacing" textLength="51" x="72" y="189.356">Load EK</text><polygon fill="#181818" points="231,219.5547,241,223.5547,231,227.5547,235,223.5547" style="stroke:#181818;stroke-width:1.0;"/><line style="stroke:#181818;stroke-width:1.0;" x1="42" x2="237" y1="223.5547" y2="223.5547"/><text fill="#000000" font-family="sans-serif" font-size="13" font-weight="bold" lengthAdjust="spacing" textLength="8" x="49" y="218.4888">3</text><text fill="#000000" font-family="sans-serif" font-size="13" lengthAdjust="spacing" textLength="131" x="61" y="218.4888">(EK_handle, EK_pub)</text><polygon fill="#181818" points="53,248.6875,43,252.6875,53,256.6875,49,252.6875" style="stroke:#181818;stroke-width:1.0;"/><line style="stroke:#181818;stroke-width:1.0;" x1="47" x2="242" y1="252.6875" y2="252.6875"/><text fill="#000000" font-family="sans-serif" font-size="13" font-weight="bold" lengthAdjust="spacing" textLength="9" x="59" y="247.6216">4</text><text fill="#000000" font-family="sans-serif" font-size="13" lengthAdjust="spacing" textLength="52" x="72" y="247.6216">Load AK</text><polygon fill="#181818" points="231,277.8203,241,281.8203,231,285.8203,235,281.8203" style="stroke:#181818;stroke-width:1.0;"/><line style="stroke:#181818;stroke-width:1.0;" x1="42" x2="237" y1="281.8203" y2="281.8203"/><text fill="#000000" font-family="sans-serif" font-size="13" font-weight="bold" lengthAdjust="spacing" textLength="9" x="49" y="276.7544">5</text><text fill="#000000" font-family="sans-serif" font-size="13" lengthAdjust="spacing" textLength="133" x="62" y="276.7544">(AK_handle, AK_pub)</text><polygon fill="#181818" points="53,306.9531,43,310.9531,53,314.9531,49,310.9531" style="stroke:#181818;stroke-width:1.0;"/><line style="stroke:#181818;stroke-width:1.0;" x1="47" x2="242" y1="310.9531" y2="310.9531"/><text fill="#000000" font-family="sans-serif" font-size="13" font-weight="bold" lengthAdjust="spacing" textLength="9" x="59" y="305.8872">6</text><text fill="#000000" font-family="sans-serif" font-size="13" lengthAdjust="spacing" textLength="164" x="72" y="305.8872">tpm_quote (PCRs, nonce)</text><polygon fill="#181818" points="231,336.0859,241,340.0859,231,344.0859,235,340.0859" style="stroke:#181818;stroke-width:1.0;"/><line style="stroke:#181818;stroke-width:1.0;" x1="42" x2="237" y1="340.0859" y2="340.0859"/><text fill="#000000" font-family="sans-serif" font-size="13" font-weight="bold" lengthAdjust="spacing" textLength="9" x="49" y="335.02">7</text><text fill="#000000" font-family="sans-serif" font-size="13" lengthAdjust="spacing" textLength="131" x="62" y="335.02">sign(AK_priv, Quote)</text><line style="stroke:#181818;stroke-width:1.0;" x1="201" x2="243" y1="369.2188" y2="369.2188"/><line style="stroke:#181818;stroke-width:1.0;" x1="201" x2="201" y1="369.2188" y2="382.2188"/><line style="stroke:#181818;stroke-width:1.0;" x1="201" x2="242" y1="382.2188" y2="382.2188"/><polygon fill="#181818" points="234,378.2188,244,382.2188,234,386.2188,238,382.2188" style="stroke:#181818;stroke-width:1.0;"/><text fill="#000000" font-family="sans-serif" font-size="13" font-weight="bold" lengthAdjust="spacing" textLength="9" x="138" y="364.1528">8</text><text fill="#000000" font-family="sans-serif" font-size="13" lengthAdjust="spacing" textLength="92" x="151" y="364.1528">Collect IMA log</text><polygon fill="#181818" points="486,407.3516,496,411.3516,486,415.3516,490,411.3516" style="stroke:#181818;stroke-width:1.0;"/><line style="stroke:#181818;stroke-width:1.0;" x1="243" x2="492" y1="411.3516" y2="411.3516"/><text fill="#000000" font-family="sans-serif" font-size="13" font-weight="bold" lengthAdjust="spacing" textLength="9" x="250" y="406.2856">9</text><text fill="#000000" font-family="sans-serif" font-size="13" lengthAdjust="spacing" textLength="184" x="263" y="406.2856">sign(AK_priv, Quote), IMA log</text><line style="stroke:#181818;stroke-width:1.0;" x1="498" x2="540" y1="440.4844" y2="440.4844"/><line style="stroke:#181818;stroke-width:1.0;" x1="540" x2="540" y1="440.4844" y2="453.4844"/><line style="stroke:#181818;stroke-width:1.0;" x1="499" x2="540" y1="453.4844" y2="453.4844"/><polygon fill="#181818" points="509,449.4844,499,453.4844,509,457.4844,505,453.4844" style="stroke:#181818;stroke-width:1.0;"/><text fill="#000000" font-family="sans-serif" font-size="13" font-weight="bold" lengthAdjust="spacing" textLength="19" x="505" y="435.4185">10</text><text fill="#000000" font-family="sans-serif" font-size="13" lengthAdjust="spacing" textLength="143" x="528" y="435.4185">Verfiy quote signature</text><line style="stroke:#181818;stroke-width:1.0;" x1="498" x2="540" y1="482.6172" y2="482.6172"/><line style="stroke:#181818;stroke-width:1.0;" x1="540" x2="540" y1="482.6172" y2="495.6172"/><line style="stroke:#181818;stroke-width:1.0;" x1="499" x2="540" y1="495.6172" y2="495.6172"/><polygon fill="#181818" points="509,491.6172,499,495.6172,509,499.6172,505,495.6172" style="stroke:#181818;stroke-width:1.0;"/><text fill="#000000" font-family="sans-serif" font-size="13" font-weight="bold" lengthAdjust="spacing" textLength="18" x="505" y="477.5513">11</text><text fill="#000000" font-family="sans-serif" font-size="13" lengthAdjust="spacing" textLength="144" x="527" y="477.5513">Verify IMA log integrity</text><line style="stroke:#181818;stroke-width:1.0;" x1="498" x2="540" y1="524.75" y2="524.75"/><line style="stroke:#181818;stroke-width:1.0;" x1="540" x2="540" y1="524.75" y2="537.75"/><line style="stroke:#181818;stroke-width:1.0;" x1="499" x2="540" y1="537.75" y2="537.75"/><polygon fill="#181818" points="509,533.75,499,537.75,509,541.75,505,537.75" style="stroke:#181818;stroke-width:1.0;"/><text fill="#000000" font-family="sans-serif" font-size="13" font-weight="bold" lengthAdjust="spacing" textLength="18" x="505" y="519.6841">12</text><text fill="#000000" font-family="sans-serif" font-size="13" lengthAdjust="spacing" textLength="225" x="527" y="519.6841">Veryfy IMA log against the whitelist</text><path d="M454,552.75 L641,552.75 L641,559.8828 L631,569.8828 L454,569.8828 L454,552.75 " fill="#EEEEEE" style="stroke:#000000;stroke-width:1.5;"/><rect fill="none" height="132.5313" style="stroke:#000000;stroke-width:1.5;" width="363.5" x="454" y="552.75"/><text fill="#000000" font-family="sans-serif" font-size="13" font-weight="bold" lengthAdjust="spacing" textLength="142" x="469" y="565.8169">if Verification fails</text><polygon fill="#181818" points="747,587.0156,757,591.0156,747,595.0156,751,591.0156" style="stroke:#181818;stroke-width:1.0;"/><line style="stroke:#181818;stroke-width:1.0;" x1="498" x2="753" y1="591.0156" y2="591.0156"/><text fill="#000000" font-family="sans-serif" font-size="13" font-weight="bold" lengthAdjust="spacing" textLength="17" x="505" y="585.9497">13</text><text fill="#000000" font-family="sans-serif" font-size="13" lengthAdjust="spacing" textLength="107" x="526" y="585.9497">Notify the failure</text><line style="stroke:#181818;stroke-width:1.0;" x1="498" x2="540" y1="620.1484" y2="620.1484"/><line style="stroke:#181818;stroke-width:1.0;" x1="540" x2="540" y1="620.1484" y2="633.1484"/><line style="stroke:#181818;stroke-width:1.0;" x1="499" x2="540" y1="633.1484" y2="633.1484"/><polygon fill="#181818" points="509,629.1484,499,633.1484,509,637.1484,505,633.1484" style="stroke:#181818;stroke-width:1.0;"/><text fill="#000000" font-family="sans-serif" font-size="13" font-weight="bold" lengthAdjust="spacing" textLength="18" x="505" y="615.0825">14</text><text fill="#000000" font-family="sans-serif" font-size="13" lengthAdjust="spacing" textLength="50" x="527" y="615.0825">stop RA</text><line style="stroke:#000000;stroke-width:1.0;stroke-dasharray:2.0,2.0;" x1="454" x2="817.5" y1="642.1484" y2="642.1484"/><line style="stroke:#181818;stroke-width:1.0;" x1="498" x2="540" y1="664.2813" y2="664.2813"/><line style="stroke:#181818;stroke-width:1.0;" x1="540" x2="540" y1="664.2813" y2="677.2813"/><line style="stroke:#181818;stroke-width:1.0;" x1="499" x2="540" y1="677.2813" y2="677.2813"/><polygon fill="#181818" points="509,673.2813,499,677.2813,509,681.2813,505,677.2813" style="stroke:#181818;stroke-width:1.0;"/><text fill="#000000" font-family="sans-serif" font-size="13" font-weight="bold" lengthAdjust="spacing" textLength="18" x="505" y="659.2153">15</text><text fill="#000000" font-family="sans-serif" font-size="13" lengthAdjust="spacing" textLength="77" x="527" y="659.2153">continue RA</text><line style="stroke:#181818;stroke-width:1.0;" x1="759" x2="801" y1="720.4141" y2="720.4141"/><line style="stroke:#181818;stroke-width:1.0;" x1="801" x2="801" y1="720.4141" y2="733.4141"/><line style="stroke:#181818;stroke-width:1.0;" x1="760" x2="801" y1="733.4141" y2="733.4141"/><polygon fill="#181818" points="770,729.4141,760,733.4141,770,737.4141,766,733.4141" style="stroke:#181818;stroke-width:1.0;"/><text fill="#000000" font-family="sans-serif" font-size="13" font-weight="bold" lengthAdjust="spacing" textLength="18" x="766" y="715.3481">16</text><text fill="#000000" font-family="sans-serif" font-size="13" lengthAdjust="spacing" textLength="144" x="788" y="715.3481">Store the failure event</text><line style="stroke:#181818;stroke-width:1.0;" x1="759" x2="801" y1="762.5469" y2="762.5469"/><line style="stroke:#181818;stroke-width:1.0;" x1="801" x2="801" y1="762.5469" y2="775.5469"/><line style="stroke:#181818;stroke-width:1.0;" x1="760" x2="801" y1="775.5469" y2="775.5469"/><polygon fill="#181818" points="770,771.5469,760,775.5469,770,779.5469,766,775.5469" style="stroke:#181818;stroke-width:1.0;"/><text fill="#000000" font-family="sans-serif" font-size="13" font-weight="bold" lengthAdjust="spacing" textLength="18" x="766" y="757.481">17</text><text fill="#000000" font-family="sans-serif" font-size="13" lengthAdjust="spacing" textLength="104" x="788" y="757.481">Notify the event</text><!--SRC=[VPFBRi8m44Nt_eeHAoh13w0AAQfOz2bAgwugHIPCmbJ6Ovm9BN_VEE4HyrfaCQDxZ-zu724ng6QuOa58HB0KBSGMd6VXZ8r2km1fL4fNmhPQpT4hDUS_w4sDbfpzggUSza8PEMq5FgUlKTrhkUY_RLAWbHxe4lIkb-hG2gVKnDZsXPvoGj_eDxiYbZmnMVX0lw4C6zbFtKZBjg6KONPgxnoEupD7qRmUrrLTG7_wC2i7ODbcUATYnt1SZpQ25zOBc3ohkZXdzYVFwLBRXS51hKbTDRz5IQvHaYCbkKKHjqhNLLXU7FmYjQJ21hBpj1d0Ux2TOk-7fwO7DWOpWSVN10mNPp7srtiPFpZuZciuEkeDvxI5Te1Wrr9vl2QbVBkd0Ld1mfDihuct7R4kDDbwjx94-5sIeA5ILE6vSa1vYwQiVGUv9bCgEBmt68wZHpM2DvQG9C22E0IEvPqR4NOmInIQyheeOojaAso4Tj5ytHFF4tm8U-m60Do4d-YsgnkyqVy3]--></g></svg>