<?xml version="1.0" encoding="us-ascii" standalone="no"?><svg xmlns="http://www.w3.org/2000/svg" xmlns:xlink="http://www.w3.org/1999/xlink" contentStyleType="text/css" height="808px" preserveAspectRatio="none" style="width:939px;height:808px;background:#FFFFFF;" version="1.1" viewBox="0 0 939 808" width="939px" zoomAndPan="magnify"><defs/><g><text fill="#000000" font-family="sans-serif" font-size="14" font-weight="bold" lengthAdjust="spacing" textLength="237" x="350.5" y="27.9951">Remote Attestation protocol</text><rect fill="#DDDDDD" height="758.7109" style="stroke:#181818;stroke-width:0.5;" width="269" x="16" y="43.2969"/><text fill="#000000" font-family="sans-serif" font-size="13" font-weight="bold" lengthAdjust="spacing" textLength="69" x="116" y="55.3638">Platform</text><rect fill="none" height="523.125" style="stroke:#000000;stroke-width:1.5;" width="817.5" x="10" y="127.0234"/><rect fill="none" height="132.5313" style="stroke:#000000;stroke-width:1.5;" width="363.5" x="454" y="510.6172"/><line style="stroke:#181818;stroke-width:0.5;stroke-dasharray:5.0,5.0;" x1="42" x2="42" y1="110.0234" y2="751.4141"/><line style="stroke:#181818;stroke-width:0.5;stroke-dasharray:5.0,5.0;" x1="243" x2="243" y1="110.0234" y2="751.4141"/><line style="stroke:#181818;stroke-width:0.5;stroke-dasharray:5.0,5.0;" x1="498" x2="498" y1="110.0234" y2="751.4141"/><line style="stroke:#181818;stroke-width:0.5;stroke-dasharray:5.0,5.0;" x1="758.5" x2="758.5" y1="110.0234" y2="751.4141"/><rect fill="#E2E2F0" height="30.2969" rx="2.5" ry="2.5" style="stroke:#181818;stroke-width:0.5;" width="44" x="20" y="78.7266"/><text fill="#000000" font-family="sans-serif" font-size="14" lengthAdjust="spacing" textLength="30" x="27" y="98.7217">TPM</text><rect fill="#E2E2F0" height="30.2969" rx="2.5" ry="2.5" style="stroke:#181818;stroke-width:0.5;" width="44" x="20" y="750.4141"/><text fill="#000000" font-family="sans-serif" font-size="14" lengthAdjust="spacing" textLength="30" x="27" y="770.4092">TPM</text><rect fill="#E2E2F0" height="46.5938" rx="2.5" ry="2.5" style="stroke:#181818;stroke-width:0.5;" width="76" x="205" y="62.4297"/><text fill="#000000" font-family="sans-serif" font-size="14" lengthAdjust="spacing" textLength="62" x="212" y="82.4248">Attester</text><text fill="#000000" font-family="sans-serif" font-size="14" lengthAdjust="spacing" textLength="44" x="221" y="98.7217">Agent</text><rect fill="#E2E2F0" height="46.5938" rx="2.5" ry="2.5" style="stroke:#181818;stroke-width:0.5;" width="76" x="205" y="750.4141"/><text fill="#000000" font-family="sans-serif" font-size="14" lengthAdjust="spacing" textLength="62" x="212" y="770.4092">Attester</text><text fill="#000000" font-family="sans-serif" font-size="14" lengthAdjust="spacing" textLength="44" x="221" y="786.7061">Agent</text><rect fill="#E2E2F0" height="30.2969" rx="2.5" ry="2.5" style="stroke:#181818;stroke-width:0.5;" width="68" x="464" y="78.7266"/><text fill="#000000" font-family="sans-serif" font-size="14" lengthAdjust="spacing" textLength="54" x="471" y="98.7217">Verifier</text><rect fill="#E2E2F0" height="30.2969" rx="2.5" ry="2.5" style="stroke:#181818;stroke-width:0.5;" width="68" x="464" y="750.4141"/><text fill="#000000" font-family="sans-serif" font-size="14" lengthAdjust="spacing" textLength="54" x="471" y="770.4092">Verifier</text><rect fill="#E2E2F0" height="30.2969" rx="2.5" ry="2.5" style="stroke:#181818;stroke-width:0.5;" width="97" x="710.5" y="78.7266"/><text fill="#000000" font-family="sans-serif" font-size="14" lengthAdjust="spacing" textLength="83" x="717.5" y="98.7217">Join Service</text><rect fill="#E2E2F0" height="30.2969" rx="2.5" ry="2.5" style="stroke:#181818;stroke-width:0.5;" width="97" x="710.5" y="750.4141"/><text fill="#000000" font-family="sans-serif" font-size="14" lengthAdjust="spacing" textLength="83" x="717.5" y="770.4092">Join Service</text><path d="M10,127.0234 L88,127.0234 L88,134.1563 L78,144.1563 L10,144.1563 L10,127.0234 " fill="#EEEEEE" style="stroke:#000000;stroke-width:1.5;"/><rect fill="none" height="523.125" style="stroke:#000000;stroke-width:1.5;" width="817.5" x="10" y="127.0234"/><text fill="#000000" font-family="sans-serif" font-size="13" font-weight="bold" lengthAdjust="spacing" textLength="33" x="25" y="140.0903">loop</text><polygon fill="#181818" points="254,161.2891,244,165.2891,254,169.2891,250,165.2891" style="stroke:#181818;stroke-width:1.0;"/><line style="stroke:#181818;stroke-width:1.0;" x1="248" x2="497" y1="165.2891" y2="165.2891"/><text fill="#000000" font-family="sans-serif" font-size="13" font-weight="bold" lengthAdjust="spacing" textLength="9" x="260" y="160.2231">1</text><text fill="#000000" font-family="sans-serif" font-size="13" lengthAdjust="spacing" textLength="218" x="273" y="160.2231">Attestation request (PCRs, nonce)</text><polygon fill="#181818" points="53,190.4219,43,194.4219,53,198.4219,49,194.4219" style="stroke:#181818;stroke-width:1.0;"/><line style="stroke:#181818;stroke-width:1.0;" x1="47" x2="242" y1="194.4219" y2="194.4219"/><text fill="#000000" font-family="sans-serif" font-size="13" font-weight="bold" lengthAdjust="spacing" textLength="9" x="59" y="189.356">2</text><text fill="#000000" font-family="sans-serif" font-size="13" lengthAdjust="spacing" textLength="51" x="72" y="189.356">Load EK</text><polygon fill="#181818" points="231,219.5547,241,223.5547,231,227.5547,235,223.5547" style="stroke:#181818;stroke-width:1.0;"/><line style="stroke:#181818;stroke-width:1.0;" x1="42" x2="237" y1="223.5547" y2="223.5547"/><text fill="#000000" font-family="sans-serif" font-size="13" font-weight="bold" lengthAdjust="spacing" textLength="8" x="49" y="218.4888">3</text><text fill="#000000" font-family="sans-serif" font-size="13" lengthAdjust="spacing" textLength="131" x="61" y="218.4888">(EK_handle, EK_pub)</text><polygon fill="#181818" points="53,248.6875,43,252.6875,53,256.6875,49,252.6875" style="stroke:#181818;stroke-width:1.0;"/><line style="stroke:#181818;stroke-width:1.0;" x1="47" x2="242" y1="252.6875" y2="252.6875"/><text fill="#000000" font-family="sans-serif" font-size="13" font-weight="bold" lengthAdjust="spacing" textLength="9" x="59" y="247.6216">4</text><text fill="#000000" font-family="sans-serif" font-size="13" lengthAdjust="spacing" textLength="52" x="72" y="247.6216">Load AK</text><polygon fill="#181818" points="231,277.8203,241,281.8203,231,285.8203,235,281.8203" style="stroke:#181818;stroke-width:1.0;"/><line style="stroke:#181818;stroke-width:1.0;" x1="42" x2="237" y1="281.8203" y2="281.8203"/><text fill="#000000" font-family="sans-serif" font-size="13" font-weight="bold" lengthAdjust="spacing" textLength="9" x="49" y="276.7544">5</text><text fill="#000000" font-family="sans-serif" font-size="13" lengthAdjust="spacing" textLength="133" x="62" y="276.7544">(AK_handle, AK_pub)</text><polygon fill="#181818" points="53,306.9531,43,310.9531,53,314.9531,49,310.9531" style="stroke:#181818;stroke-width:1.0;"/><line style="stroke:#181818;stroke-width:1.0;" x1="47" x2="242" y1="310.9531" y2="310.9531"/><text fill="#000000" font-family="sans-serif" font-size="13" font-weight="bold" lengthAdjust="spacing" textLength="9" x="59" y="305.8872">6</text><text fill="#000000" font-family="sans-serif" font-size="13" lengthAdjust="spacing" textLength="164" x="72" y="305.8872">tpm_quote (PCRs, nonce)</text><polygon fill="#181818" points="231,336.0859,241,340.0859,231,344.0859,235,340.0859" style="stroke:#181818;stroke-width:1.0;"/><line style="stroke:#181818;stroke-width:1.0;" x1="42" x2="237" y1="340.0859" y2="340.0859"/><text fill="#000000" font-family="sans-serif" font-size="13" font-weight="bold" lengthAdjust="spacing" textLength="9" x="49" y="335.02">7</text><text fill="#000000" font-family="sans-serif" font-size="13" lengthAdjust="spacing" textLength="39" x="62" y="335.02">Quote</text><line style="stroke:#181818;stroke-width:1.0;" x1="201" x2="243" y1="369.2188" y2="369.2188"/><line style="stroke:#181818;stroke-width:1.0;" x1="201" x2="201" y1="369.2188" y2="382.2188"/><line style="stroke:#181818;stroke-width:1.0;" x1="201" x2="242" y1="382.2188" y2="382.2188"/><polygon fill="#181818" points="234,378.2188,244,382.2188,234,386.2188,238,382.2188" style="stroke:#181818;stroke-width:1.0;"/><text fill="#000000" font-family="sans-serif" font-size="13" font-weight="bold" lengthAdjust="spacing" textLength="9" x="138" y="364.1528">8</text><text fill="#000000" font-family="sans-serif" font-size="13" lengthAdjust="spacing" textLength="92" x="151" y="364.1528">Collect IMA log</text><polygon fill="#181818" points="486,407.3516,496,411.3516,486,415.3516,490,411.3516" style="stroke:#181818;stroke-width:1.0;"/><line style="stroke:#181818;stroke-width:1.0;" x1="243" x2="492" y1="411.3516" y2="411.3516"/><text fill="#000000" font-family="sans-serif" font-size="13" font-weight="bold" lengthAdjust="spacing" textLength="9" x="250" y="406.2856">9</text><text fill="#000000" font-family="sans-serif" font-size="13" lengthAdjust="spacing" textLength="92" x="263" y="406.2856">Quote, IMA log</text><line style="stroke:#181818;stroke-width:1.0;" x1="498" x2="540" y1="440.4844" y2="440.4844"/><line style="stroke:#181818;stroke-width:1.0;" x1="540" x2="540" y1="440.4844" y2="453.4844"/><line style="stroke:#181818;stroke-width:1.0;" x1="499" x2="540" y1="453.4844" y2="453.4844"/><polygon fill="#181818" points="509,449.4844,499,453.4844,509,457.4844,505,453.4844" style="stroke:#181818;stroke-width:1.0;"/><text fill="#000000" font-family="sans-serif" font-size="13" font-weight="bold" lengthAdjust="spacing" textLength="19" x="505" y="435.4185">10</text><text fill="#000000" font-family="sans-serif" font-size="13" lengthAdjust="spacing" textLength="79" x="528" y="435.4185">Verfiy quote</text><line style="stroke:#181818;stroke-width:1.0;" x1="498" x2="540" y1="482.6172" y2="482.6172"/><line style="stroke:#181818;stroke-width:1.0;" x1="540" x2="540" y1="482.6172" y2="495.6172"/><line style="stroke:#181818;stroke-width:1.0;" x1="499" x2="540" y1="495.6172" y2="495.6172"/><polygon fill="#181818" points="509,491.6172,499,495.6172,509,499.6172,505,495.6172" style="stroke:#181818;stroke-width:1.0;"/><text fill="#000000" font-family="sans-serif" font-size="13" font-weight="bold" lengthAdjust="spacing" textLength="18" x="505" y="477.5513">11</text><text fill="#000000" font-family="sans-serif" font-size="13" lengthAdjust="spacing" textLength="225" x="527" y="477.5513">Veryfy IMA log against the whitelist</text><path d="M454,510.6172 L641,510.6172 L641,517.75 L631,527.75 L454,527.75 L454,510.6172 " fill="#EEEEEE" style="stroke:#000000;stroke-width:1.5;"/><rect fill="none" height="132.5313" style="stroke:#000000;stroke-width:1.5;" width="363.5" x="454" y="510.6172"/><text fill="#000000" font-family="sans-serif" font-size="13" font-weight="bold" lengthAdjust="spacing" textLength="142" x="469" y="523.6841">if Verification fails</text><polygon fill="#181818" points="747,544.8828,757,548.8828,747,552.8828,751,548.8828" style="stroke:#181818;stroke-width:1.0;"/><line style="stroke:#181818;stroke-width:1.0;" x1="498" x2="753" y1="548.8828" y2="548.8828"/><text fill="#000000" font-family="sans-serif" font-size="13" font-weight="bold" lengthAdjust="spacing" textLength="18" x="505" y="543.8169">12</text><text fill="#000000" font-family="sans-serif" font-size="13" lengthAdjust="spacing" textLength="107" x="527" y="543.8169">Notify the failure</text><line style="stroke:#181818;stroke-width:1.0;" x1="498" x2="540" y1="578.0156" y2="578.0156"/><line style="stroke:#181818;stroke-width:1.0;" x1="540" x2="540" y1="578.0156" y2="591.0156"/><line style="stroke:#181818;stroke-width:1.0;" x1="499" x2="540" y1="591.0156" y2="591.0156"/><polygon fill="#181818" points="509,587.0156,499,591.0156,509,595.0156,505,591.0156" style="stroke:#181818;stroke-width:1.0;"/><text fill="#000000" font-family="sans-serif" font-size="13" font-weight="bold" lengthAdjust="spacing" textLength="17" x="505" y="572.9497">13</text><text fill="#000000" font-family="sans-serif" font-size="13" lengthAdjust="spacing" textLength="50" x="526" y="572.9497">stop RA</text><line style="stroke:#000000;stroke-width:1.0;stroke-dasharray:2.0,2.0;" x1="454" x2="817.5" y1="600.0156" y2="600.0156"/><line style="stroke:#181818;stroke-width:1.0;" x1="498" x2="540" y1="622.1484" y2="622.1484"/><line style="stroke:#181818;stroke-width:1.0;" x1="540" x2="540" y1="622.1484" y2="635.1484"/><line style="stroke:#181818;stroke-width:1.0;" x1="499" x2="540" y1="635.1484" y2="635.1484"/><polygon fill="#181818" points="509,631.1484,499,635.1484,509,639.1484,505,635.1484" style="stroke:#181818;stroke-width:1.0;"/><text fill="#000000" font-family="sans-serif" font-size="13" font-weight="bold" lengthAdjust="spacing" textLength="18" x="505" y="617.0825">14</text><text fill="#000000" font-family="sans-serif" font-size="13" lengthAdjust="spacing" textLength="77" x="527" y="617.0825">continue RA</text><line style="stroke:#181818;stroke-width:1.0;" x1="759" x2="801" y1="678.2813" y2="678.2813"/><line style="stroke:#181818;stroke-width:1.0;" x1="801" x2="801" y1="678.2813" y2="691.2813"/><line style="stroke:#181818;stroke-width:1.0;" x1="760" x2="801" y1="691.2813" y2="691.2813"/><polygon fill="#181818" points="770,687.2813,760,691.2813,770,695.2813,766,691.2813" style="stroke:#181818;stroke-width:1.0;"/><text fill="#000000" font-family="sans-serif" font-size="13" font-weight="bold" lengthAdjust="spacing" textLength="18" x="766" y="673.2153">15</text><text fill="#000000" font-family="sans-serif" font-size="13" lengthAdjust="spacing" textLength="144" x="788" y="673.2153">Store the failure event</text><line style="stroke:#181818;stroke-width:1.0;" x1="759" x2="801" y1="720.4141" y2="720.4141"/><line style="stroke:#181818;stroke-width:1.0;" x1="801" x2="801" y1="720.4141" y2="733.4141"/><line style="stroke:#181818;stroke-width:1.0;" x1="760" x2="801" y1="733.4141" y2="733.4141"/><polygon fill="#181818" points="770,729.4141,760,733.4141,770,737.4141,766,733.4141" style="stroke:#181818;stroke-width:1.0;"/><text fill="#000000" font-family="sans-serif" font-size="13" font-weight="bold" lengthAdjust="spacing" textLength="18" x="766" y="715.3481">16</text><text fill="#000000" font-family="sans-serif" font-size="13" lengthAdjust="spacing" textLength="104" x="788" y="715.3481">Notify the event</text><!--SRC=[VPB1Ri8m343l-Ggh9oR13w09gK8SDiR4ODffKXLQjsHAuv8wRFpzqXPM0eD33hQUdvquh5YZM659Z10pOysI5HceB36bf0MQ3BYbX7HCnfKRj49iw0UYfPQSaoqZKKdBAbMLD0ploqKGHvqNxQU92pGSWQn17dE9R59D5syCopxGgboXRVdzCGYHPr86rcZtAiKM-_A9fEuIGcYYIfmgHvEmvpYuhyMTym4CbjDLFGH39iK74LQC9lvgOtWXcS5iBdnmxHpCvibMcapZq3D9vJRtBF4jIznRudiMhifavvhbXOF_Qtrhm0lFu-YIcfBMc38yBMBGL5prFRtdqJVy0_k7xX6_mrmTe1tn5d383oS7o48guzV0MuJlhMBKgcPHM78Lg1owBv5sAykbqhM0lwy1eqcm_p6y4YilRsGDx2nUuFqSDLC5grYWhcz3AHbMnc4Bcgmzvnsl9rWpMJmV073V_FVxLUU3j_ml]--></g></svg>