<?xml version="1.0" encoding="us-ascii" standalone="no"?><svg xmlns="http://www.w3.org/2000/svg" xmlns:xlink="http://www.w3.org/1999/xlink" contentStyleType="text/css" height="871px" preserveAspectRatio="none" style="width:912px;height:871px;background:#FFFFFF;" version="1.1" viewBox="0 0 912 871" width="912px" zoomAndPan="magnify"><defs/><g><rect fill="#DDDDDD" height="859.1094" style="stroke:#181818;stroke-width:0.5;" width="277" x="16" y="6"/><text fill="#000000" font-family="sans-serif" font-size="13" font-weight="bold" lengthAdjust="spacing" textLength="69" x="120" y="18.0669">Platform</text><rect fill="none" height="623.5234" style="stroke:#000000;stroke-width:1.5;" width="790.5" x="10" y="89.7266"/><rect fill="none" height="132.5313" style="stroke:#000000;stroke-width:1.5;" width="363.5" x="427" y="573.7188"/><line style="stroke:#181818;stroke-width:0.5;stroke-dasharray:5.0,5.0;" x1="42" x2="42" y1="72.7266" y2="814.5156"/><line style="stroke:#181818;stroke-width:0.5;stroke-dasharray:5.0,5.0;" x1="251" x2="251" y1="72.7266" y2="814.5156"/><line style="stroke:#181818;stroke-width:0.5;stroke-dasharray:5.0,5.0;" x1="471" x2="471" y1="72.7266" y2="814.5156"/><line style="stroke:#181818;stroke-width:0.5;stroke-dasharray:5.0,5.0;" x1="731.5" x2="731.5" y1="72.7266" y2="814.5156"/><rect fill="#E2E2F0" height="30.2969" rx="2.5" ry="2.5" style="stroke:#181818;stroke-width:0.5;" width="44" x="20" y="41.4297"/><text fill="#000000" font-family="sans-serif" font-size="14" lengthAdjust="spacing" textLength="30" x="27" y="61.4248">TPM</text><rect fill="#E2E2F0" height="30.2969" rx="2.5" ry="2.5" style="stroke:#181818;stroke-width:0.5;" width="44" x="20" y="813.5156"/><text fill="#000000" font-family="sans-serif" font-size="14" lengthAdjust="spacing" textLength="30" x="27" y="833.5107">TPM</text><rect fill="#E2E2F0" height="46.5938" rx="2.5" ry="2.5" style="stroke:#181818;stroke-width:0.5;" width="76" x="213" y="25.1328"/><text fill="#000000" font-family="sans-serif" font-size="14" lengthAdjust="spacing" textLength="62" x="220" y="45.1279">Attester</text><text fill="#000000" font-family="sans-serif" font-size="14" lengthAdjust="spacing" textLength="44" x="229" y="61.4248">Agent</text><rect fill="#E2E2F0" height="46.5938" rx="2.5" ry="2.5" style="stroke:#181818;stroke-width:0.5;" width="76" x="213" y="813.5156"/><text fill="#000000" font-family="sans-serif" font-size="14" lengthAdjust="spacing" textLength="62" x="220" y="833.5107">Attester</text><text fill="#000000" font-family="sans-serif" font-size="14" lengthAdjust="spacing" textLength="44" x="229" y="849.8076">Agent</text><rect fill="#E2E2F0" height="30.2969" rx="2.5" ry="2.5" style="stroke:#181818;stroke-width:0.5;" width="68" x="437" y="41.4297"/><text fill="#000000" font-family="sans-serif" font-size="14" lengthAdjust="spacing" textLength="54" x="444" y="61.4248">Verifier</text><rect fill="#E2E2F0" height="30.2969" rx="2.5" ry="2.5" style="stroke:#181818;stroke-width:0.5;" width="68" x="437" y="813.5156"/><text fill="#000000" font-family="sans-serif" font-size="14" lengthAdjust="spacing" textLength="54" x="444" y="833.5107">Verifier</text><rect fill="#E2E2F0" height="30.2969" rx="2.5" ry="2.5" style="stroke:#181818;stroke-width:0.5;" width="97" x="683.5" y="41.4297"/><text fill="#000000" font-family="sans-serif" font-size="14" lengthAdjust="spacing" textLength="83" x="690.5" y="61.4248">Join Service</text><rect fill="#E2E2F0" height="30.2969" rx="2.5" ry="2.5" style="stroke:#181818;stroke-width:0.5;" width="97" x="683.5" y="813.5156"/><text fill="#000000" font-family="sans-serif" font-size="14" lengthAdjust="spacing" textLength="83" x="690.5" y="833.5107">Join Service</text><path d="M10,89.7266 L88,89.7266 L88,96.8594 L78,106.8594 L10,106.8594 L10,89.7266 " fill="#EEEEEE" style="stroke:#000000;stroke-width:1.5;"/><rect fill="none" height="623.5234" style="stroke:#000000;stroke-width:1.5;" width="790.5" x="10" y="89.7266"/><text fill="#000000" font-family="sans-serif" font-size="13" font-weight="bold" lengthAdjust="spacing" textLength="33" x="25" y="102.7935">loop</text><polygon fill="#181818" points="262,123.9922,252,127.9922,262,131.9922,258,127.9922" style="stroke:#181818;stroke-width:1.0;"/><line style="stroke:#181818;stroke-width:1.0;" x1="256" x2="470" y1="127.9922" y2="127.9922"/><text fill="#000000" font-family="sans-serif" font-size="13" font-weight="bold" lengthAdjust="spacing" textLength="9" x="268" y="122.9263">1</text><text fill="#000000" font-family="sans-serif" font-size="13" lengthAdjust="spacing" textLength="183" x="281" y="122.9263">GET /api/quote: PCRs, nonce</text><polygon fill="#181818" points="53,153.125,43,157.125,53,161.125,49,157.125" style="stroke:#181818;stroke-width:1.0;"/><line style="stroke:#181818;stroke-width:1.0;" x1="47" x2="250" y1="157.125" y2="157.125"/><text fill="#000000" font-family="sans-serif" font-size="13" font-weight="bold" lengthAdjust="spacing" textLength="9" x="59" y="152.0591">2</text><text fill="#000000" font-family="sans-serif" font-size="13" lengthAdjust="spacing" textLength="51" x="72" y="152.0591">Load EK</text><polygon fill="#181818" points="239,182.2578,249,186.2578,239,190.2578,243,186.2578" style="stroke:#181818;stroke-width:1.0;"/><line style="stroke:#181818;stroke-width:1.0;" x1="42" x2="245" y1="186.2578" y2="186.2578"/><text fill="#000000" font-family="sans-serif" font-size="13" font-weight="bold" lengthAdjust="spacing" textLength="8" x="49" y="181.1919">3</text><text fill="#000000" font-family="sans-serif" font-size="13" lengthAdjust="spacing" textLength="131" x="61" y="181.1919">(EK_handle, EK_pub)</text><polygon fill="#181818" points="53,211.3906,43,215.3906,53,219.3906,49,215.3906" style="stroke:#181818;stroke-width:1.0;"/><line style="stroke:#181818;stroke-width:1.0;" x1="47" x2="250" y1="215.3906" y2="215.3906"/><text fill="#000000" font-family="sans-serif" font-size="13" font-weight="bold" lengthAdjust="spacing" textLength="9" x="59" y="210.3247">4</text><text fill="#000000" font-family="sans-serif" font-size="13" lengthAdjust="spacing" textLength="52" x="72" y="210.3247">Load AK</text><polygon fill="#181818" points="239,240.5234,249,244.5234,239,248.5234,243,244.5234" style="stroke:#181818;stroke-width:1.0;"/><line style="stroke:#181818;stroke-width:1.0;" x1="42" x2="245" y1="244.5234" y2="244.5234"/><text fill="#000000" font-family="sans-serif" font-size="13" font-weight="bold" lengthAdjust="spacing" textLength="9" x="49" y="239.4575">5</text><text fill="#000000" font-family="sans-serif" font-size="13" lengthAdjust="spacing" textLength="133" x="62" y="239.4575">(AK_handle, AK_pub)</text><polygon fill="#181818" points="53,269.6563,43,273.6563,53,277.6563,49,273.6563" style="stroke:#181818;stroke-width:1.0;"/><line style="stroke:#181818;stroke-width:1.0;" x1="47" x2="250" y1="273.6563" y2="273.6563"/><text fill="#000000" font-family="sans-serif" font-size="13" font-weight="bold" lengthAdjust="spacing" textLength="9" x="59" y="268.5903">6</text><text fill="#000000" font-family="sans-serif" font-size="13" lengthAdjust="spacing" textLength="172" x="72" y="268.5903">tpm2_quote (PCRs, nonce)</text><polygon fill="#181818" points="239,298.7891,249,302.7891,239,306.7891,243,302.7891" style="stroke:#181818;stroke-width:1.0;"/><line style="stroke:#181818;stroke-width:1.0;" x1="42" x2="245" y1="302.7891" y2="302.7891"/><text fill="#000000" font-family="sans-serif" font-size="13" font-weight="bold" lengthAdjust="spacing" textLength="9" x="49" y="297.7231">7</text><text fill="#000000" font-family="sans-serif" font-size="13" lengthAdjust="spacing" textLength="39" x="62" y="297.7231">Quote</text><polygon fill="#181818" points="53,327.9219,43,331.9219,53,335.9219,49,331.9219" style="stroke:#181818;stroke-width:1.0;"/><line style="stroke:#181818;stroke-width:1.0;" x1="47" x2="250" y1="331.9219" y2="331.9219"/><text fill="#000000" font-family="sans-serif" font-size="13" font-weight="bold" lengthAdjust="spacing" textLength="9" x="59" y="326.856">8</text><text fill="#000000" font-family="sans-serif" font-size="13" lengthAdjust="spacing" textLength="90" x="72" y="326.856">tpm2_pcrread</text><polygon fill="#181818" points="239,357.0547,249,361.0547,239,365.0547,243,361.0547" style="stroke:#181818;stroke-width:1.0;"/><line style="stroke:#181818;stroke-width:1.0;" x1="42" x2="245" y1="361.0547" y2="361.0547"/><text fill="#000000" font-family="sans-serif" font-size="13" font-weight="bold" lengthAdjust="spacing" textLength="9" x="49" y="355.9888">9</text><text fill="#000000" font-family="sans-serif" font-size="13" lengthAdjust="spacing" textLength="146" x="62" y="355.9888">Values of quoted PCRs</text><line style="stroke:#181818;stroke-width:1.0;" x1="209" x2="251" y1="390.1875" y2="390.1875"/><line style="stroke:#181818;stroke-width:1.0;" x1="209" x2="209" y1="390.1875" y2="403.1875"/><line style="stroke:#181818;stroke-width:1.0;" x1="209" x2="250" y1="403.1875" y2="403.1875"/><polygon fill="#181818" points="242,399.1875,252,403.1875,242,407.1875,246,403.1875" style="stroke:#181818;stroke-width:1.0;"/><text fill="#000000" font-family="sans-serif" font-size="13" font-weight="bold" lengthAdjust="spacing" textLength="19" x="136" y="385.1216">10</text><text fill="#000000" font-family="sans-serif" font-size="13" lengthAdjust="spacing" textLength="92" x="159" y="385.1216">Collect IMA log</text><polygon fill="#181818" points="459,428.3203,469,432.3203,459,436.3203,463,432.3203" style="stroke:#181818;stroke-width:1.0;"/><line style="stroke:#181818;stroke-width:1.0;" x1="251" x2="465" y1="432.3203" y2="432.3203"/><text fill="#000000" font-family="sans-serif" font-size="13" font-weight="bold" lengthAdjust="spacing" textLength="18" x="258" y="427.2544">11</text><text fill="#000000" font-family="sans-serif" font-size="13" lengthAdjust="spacing" textLength="133" x="280" y="427.2544">Quote, PCRs, IMA log</text><line style="stroke:#181818;stroke-width:1.0;" x1="471" x2="513" y1="461.4531" y2="461.4531"/><line style="stroke:#181818;stroke-width:1.0;" x1="513" x2="513" y1="461.4531" y2="474.4531"/><line style="stroke:#181818;stroke-width:1.0;" x1="472" x2="513" y1="474.4531" y2="474.4531"/><polygon fill="#181818" points="482,470.4531,472,474.4531,482,478.4531,478,474.4531" style="stroke:#181818;stroke-width:1.0;"/><text fill="#000000" font-family="sans-serif" font-size="13" font-weight="bold" lengthAdjust="spacing" textLength="18" x="478" y="456.3872">12</text><text fill="#000000" font-family="sans-serif" font-size="13" lengthAdjust="spacing" textLength="79" x="500" y="456.3872">Verfiy quote</text><line style="stroke:#181818;stroke-width:1.0;" x1="471" x2="513" y1="503.5859" y2="503.5859"/><line style="stroke:#181818;stroke-width:1.0;" x1="513" x2="513" y1="503.5859" y2="516.5859"/><line style="stroke:#181818;stroke-width:1.0;" x1="472" x2="513" y1="516.5859" y2="516.5859"/><polygon fill="#181818" points="482,512.5859,472,516.5859,482,520.5859,478,516.5859" style="stroke:#181818;stroke-width:1.0;"/><text fill="#000000" font-family="sans-serif" font-size="13" font-weight="bold" lengthAdjust="spacing" textLength="17" x="478" y="498.52">13</text><text fill="#000000" font-family="sans-serif" font-size="13" lengthAdjust="spacing" textLength="144" x="499" y="498.52">Verify IMA log integrity</text><line style="stroke:#181818;stroke-width:1.0;" x1="471" x2="513" y1="545.7188" y2="545.7188"/><line style="stroke:#181818;stroke-width:1.0;" x1="513" x2="513" y1="545.7188" y2="558.7188"/><line style="stroke:#181818;stroke-width:1.0;" x1="472" x2="513" y1="558.7188" y2="558.7188"/><polygon fill="#181818" points="482,554.7188,472,558.7188,482,562.7188,478,558.7188" style="stroke:#181818;stroke-width:1.0;"/><text fill="#000000" font-family="sans-serif" font-size="13" font-weight="bold" lengthAdjust="spacing" textLength="18" x="478" y="540.6528">14</text><text fill="#000000" font-family="sans-serif" font-size="13" lengthAdjust="spacing" textLength="225" x="500" y="540.6528">Veryfy IMA log against the whitelist</text><path d="M427,573.7188 L614,573.7188 L614,580.8516 L604,590.8516 L427,590.8516 L427,573.7188 " fill="#EEEEEE" style="stroke:#000000;stroke-width:1.5;"/><rect fill="none" height="132.5313" style="stroke:#000000;stroke-width:1.5;" width="363.5" x="427" y="573.7188"/><text fill="#000000" font-family="sans-serif" font-size="13" font-weight="bold" lengthAdjust="spacing" textLength="142" x="442" y="586.7856">if Verification fails</text><polygon fill="#181818" points="720,607.9844,730,611.9844,720,615.9844,724,611.9844" style="stroke:#181818;stroke-width:1.0;"/><line style="stroke:#181818;stroke-width:1.0;" x1="471" x2="726" y1="611.9844" y2="611.9844"/><text fill="#000000" font-family="sans-serif" font-size="13" font-weight="bold" lengthAdjust="spacing" textLength="18" x="478" y="606.9185">15</text><text fill="#000000" font-family="sans-serif" font-size="13" lengthAdjust="spacing" textLength="107" x="500" y="606.9185">Notify the failure</text><line style="stroke:#181818;stroke-width:1.0;" x1="471" x2="513" y1="641.1172" y2="641.1172"/><line style="stroke:#181818;stroke-width:1.0;" x1="513" x2="513" y1="641.1172" y2="654.1172"/><line style="stroke:#181818;stroke-width:1.0;" x1="472" x2="513" y1="654.1172" y2="654.1172"/><polygon fill="#181818" points="482,650.1172,472,654.1172,482,658.1172,478,654.1172" style="stroke:#181818;stroke-width:1.0;"/><text fill="#000000" font-family="sans-serif" font-size="13" font-weight="bold" lengthAdjust="spacing" textLength="18" x="478" y="636.0513">16</text><text fill="#000000" font-family="sans-serif" font-size="13" lengthAdjust="spacing" textLength="50" x="500" y="636.0513">stop RA</text><line style="stroke:#000000;stroke-width:1.0;stroke-dasharray:2.0,2.0;" x1="427" x2="790.5" y1="663.1172" y2="663.1172"/><line style="stroke:#181818;stroke-width:1.0;" x1="471" x2="513" y1="685.25" y2="685.25"/><line style="stroke:#181818;stroke-width:1.0;" x1="513" x2="513" y1="685.25" y2="698.25"/><line style="stroke:#181818;stroke-width:1.0;" x1="472" x2="513" y1="698.25" y2="698.25"/><polygon fill="#181818" points="482,694.25,472,698.25,482,702.25,478,698.25" style="stroke:#181818;stroke-width:1.0;"/><text fill="#000000" font-family="sans-serif" font-size="13" font-weight="bold" lengthAdjust="spacing" textLength="18" x="478" y="680.1841">17</text><text fill="#000000" font-family="sans-serif" font-size="13" lengthAdjust="spacing" textLength="77" x="500" y="680.1841">continue RA</text><line style="stroke:#181818;stroke-width:1.0;" x1="732" x2="774" y1="741.3828" y2="741.3828"/><line style="stroke:#181818;stroke-width:1.0;" x1="774" x2="774" y1="741.3828" y2="754.3828"/><line style="stroke:#181818;stroke-width:1.0;" x1="733" x2="774" y1="754.3828" y2="754.3828"/><polygon fill="#181818" points="743,750.3828,733,754.3828,743,758.3828,739,754.3828" style="stroke:#181818;stroke-width:1.0;"/><text fill="#000000" font-family="sans-serif" font-size="13" font-weight="bold" lengthAdjust="spacing" textLength="18" x="739" y="736.3169">18</text><text fill="#000000" font-family="sans-serif" font-size="13" lengthAdjust="spacing" textLength="144" x="761" y="736.3169">Store the failure event</text><line style="stroke:#181818;stroke-width:1.0;" x1="732" x2="774" y1="783.5156" y2="783.5156"/><line style="stroke:#181818;stroke-width:1.0;" x1="774" x2="774" y1="783.5156" y2="796.5156"/><line style="stroke:#181818;stroke-width:1.0;" x1="733" x2="774" y1="796.5156" y2="796.5156"/><polygon fill="#181818" points="743,792.5156,733,796.5156,743,800.5156,739,796.5156" style="stroke:#181818;stroke-width:1.0;"/><text fill="#000000" font-family="sans-serif" font-size="13" font-weight="bold" lengthAdjust="spacing" textLength="18" x="739" y="778.4497">19</text><text fill="#000000" font-family="sans-serif" font-size="13" lengthAdjust="spacing" textLength="104" x="761" y="778.4497">Notify the event</text><!--SRC=[VPDDQ-Cm48Rl-XL3BcaXeT1ZA05JGccxNR9fwMd1AFROcKNHgD8utVpxbUraO-Vhu8E6PvvvzU6Xa1XKmmMkMH0I4GoYXTY2yooSiL53j3cqdDALiAtMI_HABVal3EP6Iy5-FL1EUw6CdBO27_EttdhGYj7_jac9LWQW0-XTBTLrISKfqTXl-qHF1Q5l-CrkqKTUc2oyezzGXWts9nRIq1QKCinExJl7q_xC2JpDFk1EExhxgkB-9p1_N8GHMBQnjy-Eft5J4_Z1EeVPgugBKzlDx3LTQPiR74KcTTNozeebkMH93fRacaNS-ZvjWiDD9_ZjUUsl6hmYSfdtgFFppP_QL1Y02sZcvSr17SaUniTTZsmCPWBFRmaOBa-6x-zb5swqE_uzVhYs0nXVH47RDiKbW8hjtW5a1KjFihq4RpkmBZNP820hXEyL2HeAeahFbGCgMZLbxUzHQ391mVzN2UDfx-bDu2TBdQIMrN3byGW_v0Z23XQ9GXCkGnbR8LjX0zgy-ReJJnEy2tli1W3SrB_QzQvky8R_1m00]--></g></svg>