<?xml version="1.0" encoding="us-ascii" standalone="no"?><svg xmlns="http://www.w3.org/2000/svg" xmlns:xlink="http://www.w3.org/1999/xlink" contentStyleType="text/css" height="828px" preserveAspectRatio="none" style="width:946px;height:828px;background:#FFFFFF;" version="1.1" viewBox="0 0 946 828" width="946px" zoomAndPan="magnify"><defs/><g><rect fill="#DDDDDD" height="816.9766" style="stroke:#181818;stroke-width:0.5;" width="277" x="16" y="6"/><text fill="#000000" font-family="sans-serif" font-size="13" font-weight="bold" lengthAdjust="spacing" textLength="69" x="120" y="18.0669">Platform</text><rect fill="none" height="581.3906" style="stroke:#000000;stroke-width:1.5;" width="824.5" x="10" y="89.7266"/><rect fill="none" height="132.5313" style="stroke:#000000;stroke-width:1.5;" width="362.5" x="462" y="531.5859"/><line style="stroke:#181818;stroke-width:0.5;stroke-dasharray:5.0,5.0;" x1="42" x2="42" y1="72.7266" y2="772.3828"/><line style="stroke:#181818;stroke-width:0.5;stroke-dasharray:5.0,5.0;" x1="251" x2="251" y1="72.7266" y2="772.3828"/><line style="stroke:#181818;stroke-width:0.5;stroke-dasharray:5.0,5.0;" x1="506" x2="506" y1="72.7266" y2="772.3828"/><line style="stroke:#181818;stroke-width:0.5;stroke-dasharray:5.0,5.0;" x1="765.5" x2="765.5" y1="72.7266" y2="772.3828"/><rect fill="#E2E2F0" height="30.2969" rx="2.5" ry="2.5" style="stroke:#181818;stroke-width:0.5;" width="44" x="20" y="41.4297"/><text fill="#000000" font-family="sans-serif" font-size="14" lengthAdjust="spacing" textLength="30" x="27" y="61.4248">TPM</text><rect fill="#E2E2F0" height="30.2969" rx="2.5" ry="2.5" style="stroke:#181818;stroke-width:0.5;" width="44" x="20" y="771.3828"/><text fill="#000000" font-family="sans-serif" font-size="14" lengthAdjust="spacing" textLength="30" x="27" y="791.3779">TPM</text><rect fill="#E2E2F0" height="46.5938" rx="2.5" ry="2.5" style="stroke:#181818;stroke-width:0.5;" width="76" x="213" y="25.1328"/><text fill="#000000" font-family="sans-serif" font-size="14" lengthAdjust="spacing" textLength="62" x="220" y="45.1279">Attester</text><text fill="#000000" font-family="sans-serif" font-size="14" lengthAdjust="spacing" textLength="44" x="229" y="61.4248">Agent</text><rect fill="#E2E2F0" height="46.5938" rx="2.5" ry="2.5" style="stroke:#181818;stroke-width:0.5;" width="76" x="213" y="771.3828"/><text fill="#000000" font-family="sans-serif" font-size="14" lengthAdjust="spacing" textLength="62" x="220" y="791.3779">Attester</text><text fill="#000000" font-family="sans-serif" font-size="14" lengthAdjust="spacing" textLength="44" x="229" y="807.6748">Agent</text><rect fill="#E2E2F0" height="30.2969" rx="2.5" ry="2.5" style="stroke:#181818;stroke-width:0.5;" width="68" x="472" y="41.4297"/><text fill="#000000" font-family="sans-serif" font-size="14" lengthAdjust="spacing" textLength="54" x="479" y="61.4248">Verifier</text><rect fill="#E2E2F0" height="30.2969" rx="2.5" ry="2.5" style="stroke:#181818;stroke-width:0.5;" width="68" x="472" y="771.3828"/><text fill="#000000" font-family="sans-serif" font-size="14" lengthAdjust="spacing" textLength="54" x="479" y="791.3779">Verifier</text><rect fill="#E2E2F0" height="30.2969" rx="2.5" ry="2.5" style="stroke:#181818;stroke-width:0.5;" width="97" x="717.5" y="41.4297"/><text fill="#000000" font-family="sans-serif" font-size="14" lengthAdjust="spacing" textLength="83" x="724.5" y="61.4248">Join Service</text><rect fill="#E2E2F0" height="30.2969" rx="2.5" ry="2.5" style="stroke:#181818;stroke-width:0.5;" width="97" x="717.5" y="771.3828"/><text fill="#000000" font-family="sans-serif" font-size="14" lengthAdjust="spacing" textLength="83" x="724.5" y="791.3779">Join Service</text><path d="M10,89.7266 L88,89.7266 L88,96.8594 L78,106.8594 L10,106.8594 L10,89.7266 " fill="#EEEEEE" style="stroke:#000000;stroke-width:1.5;"/><rect fill="none" height="581.3906" style="stroke:#000000;stroke-width:1.5;" width="824.5" x="10" y="89.7266"/><text fill="#000000" font-family="sans-serif" font-size="13" font-weight="bold" lengthAdjust="spacing" textLength="33" x="25" y="102.7935">loop</text><polygon fill="#181818" points="262,123.9922,252,127.9922,262,131.9922,258,127.9922" style="stroke:#181818;stroke-width:1.0;"/><line style="stroke:#181818;stroke-width:1.0;" x1="256" x2="505" y1="127.9922" y2="127.9922"/><text fill="#000000" font-family="sans-serif" font-size="13" font-weight="bold" lengthAdjust="spacing" textLength="9" x="268" y="122.9263">1</text><text fill="#000000" font-family="sans-serif" font-size="13" lengthAdjust="spacing" textLength="218" x="281" y="122.9263">Attestation request (PCRs, nonce)</text><polygon fill="#181818" points="53,153.125,43,157.125,53,161.125,49,157.125" style="stroke:#181818;stroke-width:1.0;"/><line style="stroke:#181818;stroke-width:1.0;" x1="47" x2="250" y1="157.125" y2="157.125"/><text fill="#000000" font-family="sans-serif" font-size="13" font-weight="bold" lengthAdjust="spacing" textLength="9" x="59" y="152.0591">2</text><text fill="#000000" font-family="sans-serif" font-size="13" lengthAdjust="spacing" textLength="51" x="72" y="152.0591">Load EK</text><polygon fill="#181818" points="239,182.2578,249,186.2578,239,190.2578,243,186.2578" style="stroke:#181818;stroke-width:1.0;"/><line style="stroke:#181818;stroke-width:1.0;" x1="42" x2="245" y1="186.2578" y2="186.2578"/><text fill="#000000" font-family="sans-serif" font-size="13" font-weight="bold" lengthAdjust="spacing" textLength="8" x="49" y="181.1919">3</text><text fill="#000000" font-family="sans-serif" font-size="13" lengthAdjust="spacing" textLength="131" x="61" y="181.1919">(EK_handle, EK_pub)</text><polygon fill="#181818" points="53,211.3906,43,215.3906,53,219.3906,49,215.3906" style="stroke:#181818;stroke-width:1.0;"/><line style="stroke:#181818;stroke-width:1.0;" x1="47" x2="250" y1="215.3906" y2="215.3906"/><text fill="#000000" font-family="sans-serif" font-size="13" font-weight="bold" lengthAdjust="spacing" textLength="9" x="59" y="210.3247">4</text><text fill="#000000" font-family="sans-serif" font-size="13" lengthAdjust="spacing" textLength="52" x="72" y="210.3247">Load AK</text><polygon fill="#181818" points="239,240.5234,249,244.5234,239,248.5234,243,244.5234" style="stroke:#181818;stroke-width:1.0;"/><line style="stroke:#181818;stroke-width:1.0;" x1="42" x2="245" y1="244.5234" y2="244.5234"/><text fill="#000000" font-family="sans-serif" font-size="13" font-weight="bold" lengthAdjust="spacing" textLength="9" x="49" y="239.4575">5</text><text fill="#000000" font-family="sans-serif" font-size="13" lengthAdjust="spacing" textLength="133" x="62" y="239.4575">(AK_handle, AK_pub)</text><polygon fill="#181818" points="53,269.6563,43,273.6563,53,277.6563,49,273.6563" style="stroke:#181818;stroke-width:1.0;"/><line style="stroke:#181818;stroke-width:1.0;" x1="47" x2="250" y1="273.6563" y2="273.6563"/><text fill="#000000" font-family="sans-serif" font-size="13" font-weight="bold" lengthAdjust="spacing" textLength="9" x="59" y="268.5903">6</text><text fill="#000000" font-family="sans-serif" font-size="13" lengthAdjust="spacing" textLength="172" x="72" y="268.5903">tpm2_quote (PCRs, nonce)</text><polygon fill="#181818" points="239,298.7891,249,302.7891,239,306.7891,243,302.7891" style="stroke:#181818;stroke-width:1.0;"/><line style="stroke:#181818;stroke-width:1.0;" x1="42" x2="245" y1="302.7891" y2="302.7891"/><text fill="#000000" font-family="sans-serif" font-size="13" font-weight="bold" lengthAdjust="spacing" textLength="9" x="49" y="297.7231">7</text><text fill="#000000" font-family="sans-serif" font-size="13" lengthAdjust="spacing" textLength="39" x="62" y="297.7231">Quote</text><polygon fill="#181818" points="53,327.9219,43,331.9219,53,335.9219,49,331.9219" style="stroke:#181818;stroke-width:1.0;"/><line style="stroke:#181818;stroke-width:1.0;" x1="47" x2="250" y1="331.9219" y2="331.9219"/><text fill="#000000" font-family="sans-serif" font-size="13" font-weight="bold" lengthAdjust="spacing" textLength="9" x="59" y="326.856">8</text><text fill="#000000" font-family="sans-serif" font-size="13" lengthAdjust="spacing" textLength="90" x="72" y="326.856">tpm2_pcrread</text><polygon fill="#181818" points="239,357.0547,249,361.0547,239,365.0547,243,361.0547" style="stroke:#181818;stroke-width:1.0;"/><line style="stroke:#181818;stroke-width:1.0;" x1="42" x2="245" y1="361.0547" y2="361.0547"/><text fill="#000000" font-family="sans-serif" font-size="13" font-weight="bold" lengthAdjust="spacing" textLength="9" x="49" y="355.9888">9</text><text fill="#000000" font-family="sans-serif" font-size="13" lengthAdjust="spacing" textLength="82" x="62" y="355.9888">PCRs quoted</text><line style="stroke:#181818;stroke-width:1.0;" x1="209" x2="251" y1="390.1875" y2="390.1875"/><line style="stroke:#181818;stroke-width:1.0;" x1="209" x2="209" y1="390.1875" y2="403.1875"/><line style="stroke:#181818;stroke-width:1.0;" x1="209" x2="250" y1="403.1875" y2="403.1875"/><polygon fill="#181818" points="242,399.1875,252,403.1875,242,407.1875,246,403.1875" style="stroke:#181818;stroke-width:1.0;"/><text fill="#000000" font-family="sans-serif" font-size="13" font-weight="bold" lengthAdjust="spacing" textLength="19" x="136" y="385.1216">10</text><text fill="#000000" font-family="sans-serif" font-size="13" lengthAdjust="spacing" textLength="92" x="159" y="385.1216">Collect IMA log</text><polygon fill="#181818" points="494,428.3203,504,432.3203,494,436.3203,498,432.3203" style="stroke:#181818;stroke-width:1.0;"/><line style="stroke:#181818;stroke-width:1.0;" x1="251" x2="500" y1="432.3203" y2="432.3203"/><text fill="#000000" font-family="sans-serif" font-size="13" font-weight="bold" lengthAdjust="spacing" textLength="18" x="258" y="427.2544">11</text><text fill="#000000" font-family="sans-serif" font-size="13" lengthAdjust="spacing" textLength="133" x="280" y="427.2544">Quote, PCRs, IMA log</text><line style="stroke:#181818;stroke-width:1.0;" x1="506" x2="548" y1="461.4531" y2="461.4531"/><line style="stroke:#181818;stroke-width:1.0;" x1="548" x2="548" y1="461.4531" y2="474.4531"/><line style="stroke:#181818;stroke-width:1.0;" x1="507" x2="548" y1="474.4531" y2="474.4531"/><polygon fill="#181818" points="517,470.4531,507,474.4531,517,478.4531,513,474.4531" style="stroke:#181818;stroke-width:1.0;"/><text fill="#000000" font-family="sans-serif" font-size="13" font-weight="bold" lengthAdjust="spacing" textLength="18" x="513" y="456.3872">12</text><text fill="#000000" font-family="sans-serif" font-size="13" lengthAdjust="spacing" textLength="79" x="535" y="456.3872">Verfiy quote</text><line style="stroke:#181818;stroke-width:1.0;" x1="506" x2="548" y1="503.5859" y2="503.5859"/><line style="stroke:#181818;stroke-width:1.0;" x1="548" x2="548" y1="503.5859" y2="516.5859"/><line style="stroke:#181818;stroke-width:1.0;" x1="507" x2="548" y1="516.5859" y2="516.5859"/><polygon fill="#181818" points="517,512.5859,507,516.5859,517,520.5859,513,516.5859" style="stroke:#181818;stroke-width:1.0;"/><text fill="#000000" font-family="sans-serif" font-size="13" font-weight="bold" lengthAdjust="spacing" textLength="17" x="513" y="498.52">13</text><text fill="#000000" font-family="sans-serif" font-size="13" lengthAdjust="spacing" textLength="225" x="534" y="498.52">Veryfy IMA log against the whitelist</text><path d="M462,531.5859 L649,531.5859 L649,538.7188 L639,548.7188 L462,548.7188 L462,531.5859 " fill="#EEEEEE" style="stroke:#000000;stroke-width:1.5;"/><rect fill="none" height="132.5313" style="stroke:#000000;stroke-width:1.5;" width="362.5" x="462" y="531.5859"/><text fill="#000000" font-family="sans-serif" font-size="13" font-weight="bold" lengthAdjust="spacing" textLength="142" x="477" y="544.6528">if Verification fails</text><polygon fill="#181818" points="754,565.8516,764,569.8516,754,573.8516,758,569.8516" style="stroke:#181818;stroke-width:1.0;"/><line style="stroke:#181818;stroke-width:1.0;" x1="506" x2="760" y1="569.8516" y2="569.8516"/><text fill="#000000" font-family="sans-serif" font-size="13" font-weight="bold" lengthAdjust="spacing" textLength="18" x="513" y="564.7856">14</text><text fill="#000000" font-family="sans-serif" font-size="13" lengthAdjust="spacing" textLength="107" x="535" y="564.7856">Notify the failure</text><line style="stroke:#181818;stroke-width:1.0;" x1="506" x2="548" y1="598.9844" y2="598.9844"/><line style="stroke:#181818;stroke-width:1.0;" x1="548" x2="548" y1="598.9844" y2="611.9844"/><line style="stroke:#181818;stroke-width:1.0;" x1="507" x2="548" y1="611.9844" y2="611.9844"/><polygon fill="#181818" points="517,607.9844,507,611.9844,517,615.9844,513,611.9844" style="stroke:#181818;stroke-width:1.0;"/><text fill="#000000" font-family="sans-serif" font-size="13" font-weight="bold" lengthAdjust="spacing" textLength="18" x="513" y="593.9185">15</text><text fill="#000000" font-family="sans-serif" font-size="13" lengthAdjust="spacing" textLength="50" x="535" y="593.9185">stop RA</text><line style="stroke:#000000;stroke-width:1.0;stroke-dasharray:2.0,2.0;" x1="462" x2="824.5" y1="620.9844" y2="620.9844"/><line style="stroke:#181818;stroke-width:1.0;" x1="506" x2="548" y1="643.1172" y2="643.1172"/><line style="stroke:#181818;stroke-width:1.0;" x1="548" x2="548" y1="643.1172" y2="656.1172"/><line style="stroke:#181818;stroke-width:1.0;" x1="507" x2="548" y1="656.1172" y2="656.1172"/><polygon fill="#181818" points="517,652.1172,507,656.1172,517,660.1172,513,656.1172" style="stroke:#181818;stroke-width:1.0;"/><text fill="#000000" font-family="sans-serif" font-size="13" font-weight="bold" lengthAdjust="spacing" textLength="18" x="513" y="638.0513">16</text><text fill="#000000" font-family="sans-serif" font-size="13" lengthAdjust="spacing" textLength="77" x="535" y="638.0513">continue RA</text><line style="stroke:#181818;stroke-width:1.0;" x1="766" x2="808" y1="699.25" y2="699.25"/><line style="stroke:#181818;stroke-width:1.0;" x1="808" x2="808" y1="699.25" y2="712.25"/><line style="stroke:#181818;stroke-width:1.0;" x1="767" x2="808" y1="712.25" y2="712.25"/><polygon fill="#181818" points="777,708.25,767,712.25,777,716.25,773,712.25" style="stroke:#181818;stroke-width:1.0;"/><text fill="#000000" font-family="sans-serif" font-size="13" font-weight="bold" lengthAdjust="spacing" textLength="18" x="773" y="694.1841">17</text><text fill="#000000" font-family="sans-serif" font-size="13" lengthAdjust="spacing" textLength="144" x="795" y="694.1841">Store the failure event</text><line style="stroke:#181818;stroke-width:1.0;" x1="766" x2="808" y1="741.3828" y2="741.3828"/><line style="stroke:#181818;stroke-width:1.0;" x1="808" x2="808" y1="741.3828" y2="754.3828"/><line style="stroke:#181818;stroke-width:1.0;" x1="767" x2="808" y1="754.3828" y2="754.3828"/><polygon fill="#181818" points="777,750.3828,767,754.3828,777,758.3828,773,754.3828" style="stroke:#181818;stroke-width:1.0;"/><text fill="#000000" font-family="sans-serif" font-size="13" font-weight="bold" lengthAdjust="spacing" textLength="18" x="773" y="736.3169">18</text><text fill="#000000" font-family="sans-serif" font-size="13" lengthAdjust="spacing" textLength="104" x="795" y="736.3169">Notify the event</text><!--SRC=[VPDDRy8m343l-HKM5vX4BpkY2Qb273R6n63QQL8LMhTa2d58NJR-_T8M1k7hq8EjvsT7ThkiMAFepd5DZ10pOycI5HcmZfXIqgAB9eEM4x9YCjLwYKw89Vr2PwObv-JM7M6bOvKgAmt3nsmQn9rMZExBn0KQxe0iGUvpYQnJmdVnnh3i4vtA5Rg6t-w347aXPM21RgjIRB1ldqZADY649hBYK1aDmvw3uC4EDvKFe3SRpSi-638fFeYm8XhwfmtWbMG6uudmmQMpDvuaAsaoZNtF9BPQthF4jopnqHBVix1TFoQRgbvVEFbLxNiDtX7Pr3cKsVNYMWzDg-nCyHITioFI6bE6vsaCcegBbeUTx4VgGplx0J-kx0ZwQyZLhXtW5h3BTmS7o48gunVAAuIVbMBKgcHHEAeig1pQuqhRvUTIwLB0_v51D0mkQG1lnChBQraDLmxFyECS9PE5UInGbxUXb0mhKs43cgpvJZjUJh1WSdWw0E2s_dFkLvqEtl1_]--></g></svg>