<?xml version="1.0" encoding="us-ascii" standalone="no"?><svg xmlns="http://www.w3.org/2000/svg" xmlns:xlink="http://www.w3.org/1999/xlink" contentStyleType="text/css" height="828px" preserveAspectRatio="none" style="width:911px;height:828px;background:#FFFFFF;" version="1.1" viewBox="0 0 911 828" width="911px" zoomAndPan="magnify"><defs/><g><rect fill="#DDDDDD" height="816.9766" style="stroke:#181818;stroke-width:0.5;" width="277" x="16" y="6"/><text fill="#000000" font-family="sans-serif" font-size="13" font-weight="bold" lengthAdjust="spacing" textLength="69" x="120" y="18.0669">Platform</text><rect fill="none" height="581.3906" style="stroke:#000000;stroke-width:1.5;" width="789.5" x="10" y="89.7266"/><rect fill="none" height="132.5313" style="stroke:#000000;stroke-width:1.5;" width="362.5" x="427" y="531.5859"/><line style="stroke:#181818;stroke-width:0.5;stroke-dasharray:5.0,5.0;" x1="42" x2="42" y1="72.7266" y2="772.3828"/><line style="stroke:#181818;stroke-width:0.5;stroke-dasharray:5.0,5.0;" x1="251" x2="251" y1="72.7266" y2="772.3828"/><line style="stroke:#181818;stroke-width:0.5;stroke-dasharray:5.0,5.0;" x1="471" x2="471" y1="72.7266" y2="772.3828"/><line style="stroke:#181818;stroke-width:0.5;stroke-dasharray:5.0,5.0;" x1="730.5" x2="730.5" y1="72.7266" y2="772.3828"/><rect fill="#E2E2F0" height="30.2969" rx="2.5" ry="2.5" style="stroke:#181818;stroke-width:0.5;" width="44" x="20" y="41.4297"/><text fill="#000000" font-family="sans-serif" font-size="14" lengthAdjust="spacing" textLength="30" x="27" y="61.4248">TPM</text><rect fill="#E2E2F0" height="30.2969" rx="2.5" ry="2.5" style="stroke:#181818;stroke-width:0.5;" width="44" x="20" y="771.3828"/><text fill="#000000" font-family="sans-serif" font-size="14" lengthAdjust="spacing" textLength="30" x="27" y="791.3779">TPM</text><rect fill="#E2E2F0" height="46.5938" rx="2.5" ry="2.5" style="stroke:#181818;stroke-width:0.5;" width="76" x="213" y="25.1328"/><text fill="#000000" font-family="sans-serif" font-size="14" lengthAdjust="spacing" textLength="62" x="220" y="45.1279">Attester</text><text fill="#000000" font-family="sans-serif" font-size="14" lengthAdjust="spacing" textLength="44" x="229" y="61.4248">Agent</text><rect fill="#E2E2F0" height="46.5938" rx="2.5" ry="2.5" style="stroke:#181818;stroke-width:0.5;" width="76" x="213" y="771.3828"/><text fill="#000000" font-family="sans-serif" font-size="14" lengthAdjust="spacing" textLength="62" x="220" y="791.3779">Attester</text><text fill="#000000" font-family="sans-serif" font-size="14" lengthAdjust="spacing" textLength="44" x="229" y="807.6748">Agent</text><rect fill="#E2E2F0" height="30.2969" rx="2.5" ry="2.5" style="stroke:#181818;stroke-width:0.5;" width="68" x="437" y="41.4297"/><text fill="#000000" font-family="sans-serif" font-size="14" lengthAdjust="spacing" textLength="54" x="444" y="61.4248">Verifier</text><rect fill="#E2E2F0" height="30.2969" rx="2.5" ry="2.5" style="stroke:#181818;stroke-width:0.5;" width="68" x="437" y="771.3828"/><text fill="#000000" font-family="sans-serif" font-size="14" lengthAdjust="spacing" textLength="54" x="444" y="791.3779">Verifier</text><rect fill="#E2E2F0" height="30.2969" rx="2.5" ry="2.5" style="stroke:#181818;stroke-width:0.5;" width="97" x="682.5" y="41.4297"/><text fill="#000000" font-family="sans-serif" font-size="14" lengthAdjust="spacing" textLength="83" x="689.5" y="61.4248">Join Service</text><rect fill="#E2E2F0" height="30.2969" rx="2.5" ry="2.5" style="stroke:#181818;stroke-width:0.5;" width="97" x="682.5" y="771.3828"/><text fill="#000000" font-family="sans-serif" font-size="14" lengthAdjust="spacing" textLength="83" x="689.5" y="791.3779">Join Service</text><path d="M10,89.7266 L88,89.7266 L88,96.8594 L78,106.8594 L10,106.8594 L10,89.7266 " fill="#EEEEEE" style="stroke:#000000;stroke-width:1.5;"/><rect fill="none" height="581.3906" style="stroke:#000000;stroke-width:1.5;" width="789.5" x="10" y="89.7266"/><text fill="#000000" font-family="sans-serif" font-size="13" font-weight="bold" lengthAdjust="spacing" textLength="33" x="25" y="102.7935">loop</text><polygon fill="#181818" points="262,123.9922,252,127.9922,262,131.9922,258,127.9922" style="stroke:#181818;stroke-width:1.0;"/><line style="stroke:#181818;stroke-width:1.0;" x1="256" x2="470" y1="127.9922" y2="127.9922"/><text fill="#000000" font-family="sans-serif" font-size="13" font-weight="bold" lengthAdjust="spacing" textLength="9" x="268" y="122.9263">1</text><text fill="#000000" font-family="sans-serif" font-size="13" lengthAdjust="spacing" textLength="183" x="281" y="122.9263">GET /api/quote: PCRs, nonce</text><polygon fill="#181818" points="53,153.125,43,157.125,53,161.125,49,157.125" style="stroke:#181818;stroke-width:1.0;"/><line style="stroke:#181818;stroke-width:1.0;" x1="47" x2="250" y1="157.125" y2="157.125"/><text fill="#000000" font-family="sans-serif" font-size="13" font-weight="bold" lengthAdjust="spacing" textLength="9" x="59" y="152.0591">2</text><text fill="#000000" font-family="sans-serif" font-size="13" lengthAdjust="spacing" textLength="51" x="72" y="152.0591">Load EK</text><polygon fill="#181818" points="239,182.2578,249,186.2578,239,190.2578,243,186.2578" style="stroke:#181818;stroke-width:1.0;"/><line style="stroke:#181818;stroke-width:1.0;" x1="42" x2="245" y1="186.2578" y2="186.2578"/><text fill="#000000" font-family="sans-serif" font-size="13" font-weight="bold" lengthAdjust="spacing" textLength="8" x="49" y="181.1919">3</text><text fill="#000000" font-family="sans-serif" font-size="13" lengthAdjust="spacing" textLength="131" x="61" y="181.1919">(EK_handle, EK_pub)</text><polygon fill="#181818" points="53,211.3906,43,215.3906,53,219.3906,49,215.3906" style="stroke:#181818;stroke-width:1.0;"/><line style="stroke:#181818;stroke-width:1.0;" x1="47" x2="250" y1="215.3906" y2="215.3906"/><text fill="#000000" font-family="sans-serif" font-size="13" font-weight="bold" lengthAdjust="spacing" textLength="9" x="59" y="210.3247">4</text><text fill="#000000" font-family="sans-serif" font-size="13" lengthAdjust="spacing" textLength="52" x="72" y="210.3247">Load AK</text><polygon fill="#181818" points="239,240.5234,249,244.5234,239,248.5234,243,244.5234" style="stroke:#181818;stroke-width:1.0;"/><line style="stroke:#181818;stroke-width:1.0;" x1="42" x2="245" y1="244.5234" y2="244.5234"/><text fill="#000000" font-family="sans-serif" font-size="13" font-weight="bold" lengthAdjust="spacing" textLength="9" x="49" y="239.4575">5</text><text fill="#000000" font-family="sans-serif" font-size="13" lengthAdjust="spacing" textLength="133" x="62" y="239.4575">(AK_handle, AK_pub)</text><polygon fill="#181818" points="53,269.6563,43,273.6563,53,277.6563,49,273.6563" style="stroke:#181818;stroke-width:1.0;"/><line style="stroke:#181818;stroke-width:1.0;" x1="47" x2="250" y1="273.6563" y2="273.6563"/><text fill="#000000" font-family="sans-serif" font-size="13" font-weight="bold" lengthAdjust="spacing" textLength="9" x="59" y="268.5903">6</text><text fill="#000000" font-family="sans-serif" font-size="13" lengthAdjust="spacing" textLength="172" x="72" y="268.5903">tpm2_quote (PCRs, nonce)</text><polygon fill="#181818" points="239,298.7891,249,302.7891,239,306.7891,243,302.7891" style="stroke:#181818;stroke-width:1.0;"/><line style="stroke:#181818;stroke-width:1.0;" x1="42" x2="245" y1="302.7891" y2="302.7891"/><text fill="#000000" font-family="sans-serif" font-size="13" font-weight="bold" lengthAdjust="spacing" textLength="9" x="49" y="297.7231">7</text><text fill="#000000" font-family="sans-serif" font-size="13" lengthAdjust="spacing" textLength="39" x="62" y="297.7231">Quote</text><polygon fill="#181818" points="53,327.9219,43,331.9219,53,335.9219,49,331.9219" style="stroke:#181818;stroke-width:1.0;"/><line style="stroke:#181818;stroke-width:1.0;" x1="47" x2="250" y1="331.9219" y2="331.9219"/><text fill="#000000" font-family="sans-serif" font-size="13" font-weight="bold" lengthAdjust="spacing" textLength="9" x="59" y="326.856">8</text><text fill="#000000" font-family="sans-serif" font-size="13" lengthAdjust="spacing" textLength="90" x="72" y="326.856">tpm2_pcrread</text><polygon fill="#181818" points="239,357.0547,249,361.0547,239,365.0547,243,361.0547" style="stroke:#181818;stroke-width:1.0;"/><line style="stroke:#181818;stroke-width:1.0;" x1="42" x2="245" y1="361.0547" y2="361.0547"/><text fill="#000000" font-family="sans-serif" font-size="13" font-weight="bold" lengthAdjust="spacing" textLength="9" x="49" y="355.9888">9</text><text fill="#000000" font-family="sans-serif" font-size="13" lengthAdjust="spacing" textLength="82" x="62" y="355.9888">PCRs quoted</text><line style="stroke:#181818;stroke-width:1.0;" x1="209" x2="251" y1="390.1875" y2="390.1875"/><line style="stroke:#181818;stroke-width:1.0;" x1="209" x2="209" y1="390.1875" y2="403.1875"/><line style="stroke:#181818;stroke-width:1.0;" x1="209" x2="250" y1="403.1875" y2="403.1875"/><polygon fill="#181818" points="242,399.1875,252,403.1875,242,407.1875,246,403.1875" style="stroke:#181818;stroke-width:1.0;"/><text fill="#000000" font-family="sans-serif" font-size="13" font-weight="bold" lengthAdjust="spacing" textLength="19" x="136" y="385.1216">10</text><text fill="#000000" font-family="sans-serif" font-size="13" lengthAdjust="spacing" textLength="92" x="159" y="385.1216">Collect IMA log</text><polygon fill="#181818" points="459,428.3203,469,432.3203,459,436.3203,463,432.3203" style="stroke:#181818;stroke-width:1.0;"/><line style="stroke:#181818;stroke-width:1.0;" x1="251" x2="465" y1="432.3203" y2="432.3203"/><text fill="#000000" font-family="sans-serif" font-size="13" font-weight="bold" lengthAdjust="spacing" textLength="18" x="258" y="427.2544">11</text><text fill="#000000" font-family="sans-serif" font-size="13" lengthAdjust="spacing" textLength="133" x="280" y="427.2544">Quote, PCRs, IMA log</text><line style="stroke:#181818;stroke-width:1.0;" x1="471" x2="513" y1="461.4531" y2="461.4531"/><line style="stroke:#181818;stroke-width:1.0;" x1="513" x2="513" y1="461.4531" y2="474.4531"/><line style="stroke:#181818;stroke-width:1.0;" x1="472" x2="513" y1="474.4531" y2="474.4531"/><polygon fill="#181818" points="482,470.4531,472,474.4531,482,478.4531,478,474.4531" style="stroke:#181818;stroke-width:1.0;"/><text fill="#000000" font-family="sans-serif" font-size="13" font-weight="bold" lengthAdjust="spacing" textLength="18" x="478" y="456.3872">12</text><text fill="#000000" font-family="sans-serif" font-size="13" lengthAdjust="spacing" textLength="79" x="500" y="456.3872">Verfiy quote</text><line style="stroke:#181818;stroke-width:1.0;" x1="471" x2="513" y1="503.5859" y2="503.5859"/><line style="stroke:#181818;stroke-width:1.0;" x1="513" x2="513" y1="503.5859" y2="516.5859"/><line style="stroke:#181818;stroke-width:1.0;" x1="472" x2="513" y1="516.5859" y2="516.5859"/><polygon fill="#181818" points="482,512.5859,472,516.5859,482,520.5859,478,516.5859" style="stroke:#181818;stroke-width:1.0;"/><text fill="#000000" font-family="sans-serif" font-size="13" font-weight="bold" lengthAdjust="spacing" textLength="17" x="478" y="498.52">13</text><text fill="#000000" font-family="sans-serif" font-size="13" lengthAdjust="spacing" textLength="225" x="499" y="498.52">Veryfy IMA log against the whitelist</text><path d="M427,531.5859 L614,531.5859 L614,538.7188 L604,548.7188 L427,548.7188 L427,531.5859 " fill="#EEEEEE" style="stroke:#000000;stroke-width:1.5;"/><rect fill="none" height="132.5313" style="stroke:#000000;stroke-width:1.5;" width="362.5" x="427" y="531.5859"/><text fill="#000000" font-family="sans-serif" font-size="13" font-weight="bold" lengthAdjust="spacing" textLength="142" x="442" y="544.6528">if Verification fails</text><polygon fill="#181818" points="719,565.8516,729,569.8516,719,573.8516,723,569.8516" style="stroke:#181818;stroke-width:1.0;"/><line style="stroke:#181818;stroke-width:1.0;" x1="471" x2="725" y1="569.8516" y2="569.8516"/><text fill="#000000" font-family="sans-serif" font-size="13" font-weight="bold" lengthAdjust="spacing" textLength="18" x="478" y="564.7856">14</text><text fill="#000000" font-family="sans-serif" font-size="13" lengthAdjust="spacing" textLength="107" x="500" y="564.7856">Notify the failure</text><line style="stroke:#181818;stroke-width:1.0;" x1="471" x2="513" y1="598.9844" y2="598.9844"/><line style="stroke:#181818;stroke-width:1.0;" x1="513" x2="513" y1="598.9844" y2="611.9844"/><line style="stroke:#181818;stroke-width:1.0;" x1="472" x2="513" y1="611.9844" y2="611.9844"/><polygon fill="#181818" points="482,607.9844,472,611.9844,482,615.9844,478,611.9844" style="stroke:#181818;stroke-width:1.0;"/><text fill="#000000" font-family="sans-serif" font-size="13" font-weight="bold" lengthAdjust="spacing" textLength="18" x="478" y="593.9185">15</text><text fill="#000000" font-family="sans-serif" font-size="13" lengthAdjust="spacing" textLength="50" x="500" y="593.9185">stop RA</text><line style="stroke:#000000;stroke-width:1.0;stroke-dasharray:2.0,2.0;" x1="427" x2="789.5" y1="620.9844" y2="620.9844"/><line style="stroke:#181818;stroke-width:1.0;" x1="471" x2="513" y1="643.1172" y2="643.1172"/><line style="stroke:#181818;stroke-width:1.0;" x1="513" x2="513" y1="643.1172" y2="656.1172"/><line style="stroke:#181818;stroke-width:1.0;" x1="472" x2="513" y1="656.1172" y2="656.1172"/><polygon fill="#181818" points="482,652.1172,472,656.1172,482,660.1172,478,656.1172" style="stroke:#181818;stroke-width:1.0;"/><text fill="#000000" font-family="sans-serif" font-size="13" font-weight="bold" lengthAdjust="spacing" textLength="18" x="478" y="638.0513">16</text><text fill="#000000" font-family="sans-serif" font-size="13" lengthAdjust="spacing" textLength="77" x="500" y="638.0513">continue RA</text><line style="stroke:#181818;stroke-width:1.0;" x1="731" x2="773" y1="699.25" y2="699.25"/><line style="stroke:#181818;stroke-width:1.0;" x1="773" x2="773" y1="699.25" y2="712.25"/><line style="stroke:#181818;stroke-width:1.0;" x1="732" x2="773" y1="712.25" y2="712.25"/><polygon fill="#181818" points="742,708.25,732,712.25,742,716.25,738,712.25" style="stroke:#181818;stroke-width:1.0;"/><text fill="#000000" font-family="sans-serif" font-size="13" font-weight="bold" lengthAdjust="spacing" textLength="18" x="738" y="694.1841">17</text><text fill="#000000" font-family="sans-serif" font-size="13" lengthAdjust="spacing" textLength="144" x="760" y="694.1841">Store the failure event</text><line style="stroke:#181818;stroke-width:1.0;" x1="731" x2="773" y1="741.3828" y2="741.3828"/><line style="stroke:#181818;stroke-width:1.0;" x1="773" x2="773" y1="741.3828" y2="754.3828"/><line style="stroke:#181818;stroke-width:1.0;" x1="732" x2="773" y1="754.3828" y2="754.3828"/><polygon fill="#181818" points="742,750.3828,732,754.3828,742,758.3828,738,754.3828" style="stroke:#181818;stroke-width:1.0;"/><text fill="#000000" font-family="sans-serif" font-size="13" font-weight="bold" lengthAdjust="spacing" textLength="18" x="738" y="736.3169">18</text><text fill="#000000" font-family="sans-serif" font-size="13" lengthAdjust="spacing" textLength="104" x="760" y="736.3169">Notify the event</text><!--SRC=[VPDDQy9048Rl-oi6BxQW57gK8eGYfPzOMtegX3MPw9HrPxixiVNVTvDeDNuTSjZXcMVUJIPT8J6ekXDSi20a8XX42x45vrauOwEwQ7DeEALBOLikfkYLcl8lTCP6Iy5-qL5EUw6CdBO2x-FdrhdJYD5_scI6LZgW0-XrBTLLISKfqTXk-q1F1Q6l-UNwq4OUc2oyeLzIXZNs5GjfQ0fA6MQdDftzONlc0Ev6xt2b7Lrzb_7-0nZVJa8FBDlOssRxmtYf0Jonpc7qgEBXq7OnUapdskO6Uv59NJczF6D9JbcIhIKvPn6tk4xhu72n4_pokFQr0i-8NEOzwlnuSwM7UbI-fxZfxxEtR0nc0lVF2HYU7OpSV8rrfDxwfM_mxSVQWd4F2ber0Ku1gsArSO2UQR91GEO8FtCID1H4pJoN3gY0PgsoPiyBJIOe-5ylw0zREpI05nQAyafMmQN7FNoR8mWxc2GAJJWDPMo5R8arQFFwsPrucE1DsEDk0C1bzS-SxzeDNlD_]--></g></svg>