<?xml version="1.0" encoding="us-ascii" standalone="no"?><svg xmlns="http://www.w3.org/2000/svg" xmlns:xlink="http://www.w3.org/1999/xlink" contentStyleType="text/css" height="400px" preserveAspectRatio="none" style="width:589px;height:400px;background:#FFFFFF;" version="1.1" viewBox="0 0 589 400" width="589px" zoomAndPan="magnify"><defs/><g><text fill="#000000" font-family="sans-serif" font-size="14" font-weight="bold" lengthAdjust="spacing" textLength="165" x="211.5" y="27.9951">Revocation protocol</text><rect fill="#DDDDDD" height="351.1172" style="stroke:#181818;stroke-width:0.5;" width="138" x="1" y="43.2969"/><text fill="#000000" font-family="sans-serif" font-size="13" font-weight="bold" lengthAdjust="spacing" textLength="69" x="35.5" y="55.3638">Platform</text><line style="stroke:#181818;stroke-width:0.5;stroke-dasharray:5.0,5.0;" x1="27" x2="27" y1="110.0234" y2="343.8203"/><line style="stroke:#181818;stroke-width:0.5;stroke-dasharray:5.0,5.0;" x1="97" x2="97" y1="110.0234" y2="343.8203"/><line style="stroke:#181818;stroke-width:0.5;stroke-dasharray:5.0,5.0;" x1="225" x2="225" y1="110.0234" y2="343.8203"/><line style="stroke:#181818;stroke-width:0.5;stroke-dasharray:5.0,5.0;" x1="465" x2="465" y1="110.0234" y2="343.8203"/><rect fill="#E2E2F0" height="30.2969" rx="2.5" ry="2.5" style="stroke:#181818;stroke-width:0.5;" width="44" x="5" y="78.7266"/><text fill="#000000" font-family="sans-serif" font-size="14" lengthAdjust="spacing" textLength="30" x="12" y="98.7217">TPM</text><rect fill="#E2E2F0" height="30.2969" rx="2.5" ry="2.5" style="stroke:#181818;stroke-width:0.5;" width="44" x="5" y="342.8203"/><text fill="#000000" font-family="sans-serif" font-size="14" lengthAdjust="spacing" textLength="30" x="12" y="362.8154">TPM</text><rect fill="#E2E2F0" height="46.5938" rx="2.5" ry="2.5" style="stroke:#181818;stroke-width:0.5;" width="76" x="59" y="62.4297"/><text fill="#000000" font-family="sans-serif" font-size="14" lengthAdjust="spacing" textLength="62" x="66" y="82.4248">Attester</text><text fill="#000000" font-family="sans-serif" font-size="14" lengthAdjust="spacing" textLength="44" x="75" y="98.7217">Agent</text><rect fill="#E2E2F0" height="46.5938" rx="2.5" ry="2.5" style="stroke:#181818;stroke-width:0.5;" width="76" x="59" y="342.8203"/><text fill="#000000" font-family="sans-serif" font-size="14" lengthAdjust="spacing" textLength="62" x="66" y="362.8154">Attester</text><text fill="#000000" font-family="sans-serif" font-size="14" lengthAdjust="spacing" textLength="44" x="75" y="379.1123">Agent</text><rect fill="#E2E2F0" height="30.2969" rx="2.5" ry="2.5" style="stroke:#181818;stroke-width:0.5;" width="68" x="191" y="78.7266"/><text fill="#000000" font-family="sans-serif" font-size="14" lengthAdjust="spacing" textLength="54" x="198" y="98.7217">Verifier</text><rect fill="#E2E2F0" height="30.2969" rx="2.5" ry="2.5" style="stroke:#181818;stroke-width:0.5;" width="68" x="191" y="342.8203"/><text fill="#000000" font-family="sans-serif" font-size="14" lengthAdjust="spacing" textLength="54" x="198" y="362.8154">Verifier</text><rect fill="#E2E2F0" height="30.2969" rx="2.5" ry="2.5" style="stroke:#181818;stroke-width:0.5;" width="34" x="448" y="78.7266"/><text fill="#000000" font-family="sans-serif" font-size="14" lengthAdjust="spacing" textLength="20" x="455" y="98.7217">CA</text><rect fill="#E2E2F0" height="30.2969" rx="2.5" ry="2.5" style="stroke:#181818;stroke-width:0.5;" width="34" x="448" y="342.8203"/><text fill="#000000" font-family="sans-serif" font-size="14" lengthAdjust="spacing" textLength="20" x="455" y="362.8154">CA</text><polygon fill="#181818" points="213,137.1563,223,141.1563,213,145.1563,217,141.1563" style="stroke:#181818;stroke-width:1.0;"/><line style="stroke:#181818;stroke-width:1.0;" x1="97" x2="219" y1="141.1563" y2="141.1563"/><text fill="#000000" font-family="sans-serif" font-size="13" font-weight="bold" lengthAdjust="spacing" textLength="9" x="104" y="136.0903">1</text><text fill="#000000" font-family="sans-serif" font-size="13" lengthAdjust="spacing" textLength="91" x="117" y="136.0903">Integrity proof</text><line style="stroke:#181818;stroke-width:1.0;" x1="225" x2="267" y1="170.2891" y2="170.2891"/><line style="stroke:#181818;stroke-width:1.0;" x1="267" x2="267" y1="170.2891" y2="183.2891"/><line style="stroke:#181818;stroke-width:1.0;" x1="226" x2="267" y1="183.2891" y2="183.2891"/><polygon fill="#181818" points="236,179.2891,226,183.2891,236,187.2891,232,183.2891" style="stroke:#181818;stroke-width:1.0;"/><text fill="#000000" font-family="sans-serif" font-size="13" font-weight="bold" lengthAdjust="spacing" textLength="9" x="232" y="165.2231">2</text><text fill="#000000" font-family="sans-serif" font-size="13" lengthAdjust="spacing" textLength="133" x="245" y="165.2231">Verify integrity proof</text><path d="M13,157.6563 L13,182.6563 L220,182.6563 L220,167.6563 L210,157.6563 L13,157.6563 " fill="#FEFFDD" style="stroke:#181818;stroke-width:0.5;"/><path d="M210,157.6563 L210,167.6563 L220,167.6563 L210,157.6563 " fill="#FEFFDD" style="stroke:#181818;stroke-width:0.5;"/><text fill="#000000" font-family="sans-serif" font-size="13" lengthAdjust="spacing" textLength="186" x="19" y="174.7231">The Integrity verification fails</text><polygon fill="#181818" points="453,208.4219,463,212.4219,453,216.4219,457,212.4219" style="stroke:#181818;stroke-width:1.0;"/><line style="stroke:#181818;stroke-width:1.0;" x1="225" x2="459" y1="212.4219" y2="212.4219"/><text fill="#000000" font-family="sans-serif" font-size="13" font-weight="bold" lengthAdjust="spacing" textLength="8" x="232" y="207.356">3</text><text fill="#000000" font-family="sans-serif" font-size="13" lengthAdjust="spacing" textLength="197" x="244" y="207.356">Request revocation for AK cert</text><line style="stroke:#181818;stroke-width:1.0;" x1="465" x2="507" y1="241.5547" y2="241.5547"/><line style="stroke:#181818;stroke-width:1.0;" x1="507" x2="507" y1="241.5547" y2="254.5547"/><line style="stroke:#181818;stroke-width:1.0;" x1="466" x2="507" y1="254.5547" y2="254.5547"/><polygon fill="#181818" points="476,250.5547,466,254.5547,476,258.5547,472,254.5547" style="stroke:#181818;stroke-width:1.0;"/><text fill="#000000" font-family="sans-serif" font-size="13" font-weight="bold" lengthAdjust="spacing" textLength="9" x="472" y="236.4888">4</text><text fill="#000000" font-family="sans-serif" font-size="13" lengthAdjust="spacing" textLength="97" x="485" y="236.4888">revoke AK_cert</text><polygon fill="#181818" points="236,279.6875,226,283.6875,236,287.6875,232,283.6875" style="stroke:#181818;stroke-width:1.0;"/><line style="stroke:#181818;stroke-width:1.0;" x1="230" x2="464" y1="283.6875" y2="283.6875"/><text fill="#000000" font-family="sans-serif" font-size="13" font-weight="bold" lengthAdjust="spacing" textLength="9" x="242" y="278.6216">5</text><text fill="#000000" font-family="sans-serif" font-size="13" lengthAdjust="spacing" textLength="163" x="255" y="278.6216">Notify AK_cert revocation</text><line style="stroke:#181818;stroke-width:1.0;" x1="225" x2="267" y1="312.8203" y2="312.8203"/><line style="stroke:#181818;stroke-width:1.0;" x1="267" x2="267" y1="312.8203" y2="325.8203"/><line style="stroke:#181818;stroke-width:1.0;" x1="226" x2="267" y1="325.8203" y2="325.8203"/><polygon fill="#181818" points="236,321.8203,226,325.8203,236,329.8203,232,325.8203" style="stroke:#181818;stroke-width:1.0;"/><text fill="#000000" font-family="sans-serif" font-size="13" font-weight="bold" lengthAdjust="spacing" textLength="9" x="232" y="307.7544">6</text><text fill="#000000" font-family="sans-serif" font-size="13" lengthAdjust="spacing" textLength="213" x="245" y="307.7544">Stop Remote Attestation process</text><!--SRC=[RL51JiCm4Bpx5QlS-K0FI5PF286gKd52gbopBXQEDxKd5VqzTfAs2UAuCxEpup4y0gijdyKQU8dK9O5O2OhZ9s5WbUaXiMyFd9Gwo0yrcs3W9BMDwao2jxup4RJRl2pcHWESmUaZwYD7D6GocGdRcmhLAyLnkVREoJlFQT2Vfw6aM6m-F5wP5Jr5y35vN6fwSUhAp3M3wONy7saKC0LsKBildXcDYrCdplYGXqAgV6Q_rYlQygalkIZTEopLa7ucombghKTPfR-vmFiRV0_tAgZX9d9czUzJtY1TETlMw6F5jw-pdFCl]--></g></svg>